<?xml version="1.0" encoding="UTF-8"?>
<!-- Generated by Pixelmator Pro 2.4.3 -->
<svg width="1920" height="637" viewBox="0 0 1920 637" xmlns="http://www.w3.org/2000/svg" xmlns:xlink="http://www.w3.org/1999/xlink">
    <path id="Path" fill="#000000" fill-rule="evenodd" stroke="none" d="M -10 606 L 107 604 C 107 604 116.601578 601.705566 124 597 C 131.398422 592.294434 215 517 215 517 L 261 553 L 271 540 L 355 479 L 374 477 L 396 483 L 497 386 L 545 436 L 570 454 C 570 454 600.316406 486.121338 604 504 C 607.683594 521.878662 604 521 604 521 L 608 506 L 656 467 L 663 470 L 673 492 L 678 489 L 781 313 L 817 269 L 828 266 L 843 273 L 872 300 L 954 202 L 1000 102 L 1024 37 L 1038 13 L 1052 4 L 1061 6 L 1069 20 L 1083 53 C 1083 53 1119.868774 107.921692 1128 108 C 1136.131226 108.078308 1159 135 1159 135 L 1268 271 L 1270 265 L 1328 203 C 1328 203 1335.241455 203.011719 1338 210 C 1340.758545 216.988281 1401 279 1401 279 L 1416 273 L 1448 298 L 1489 351 L 1527 413 L 1531 412 L 1572 350 L 1578 353 L 1625 414 L 1664 453 L 1718 521 L 1726 510 L 1770 473 L 1821 577 L 1821 610 L 1931 625 L 1927 668 L -15 646 L -10 606 Z"/>
    <path id="path1" fill="#ffffff" stroke="none" d="M 1460.729126 308.859375 C 1468.942749 319.140625 1477.708374 328.65625 1484.713501 339.328125 C 1499.244751 361.479187 1512.838501 384.255188 1526.864624 406.739594 C 1527.369751 407.552094 1528.328125 408.234375 1529.229126 408.572906 C 1529.541626 408.692719 1530.453125 407.692719 1530.854126 407.052094 C 1536.291626 398.411469 1541.583374 389.682312 1547.114624 381.098938 C 1553.255249 371.578125 1559.572876 362.171875 1565.859375 352.744812 C 1570.645874 345.578125 1574.963501 346.171875 1580.734375 352.526062 C 1592.609375 365.604187 1600.729126 381.739563 1614.369751 393.338531 C 1618.864624 397.15625 1623.1875 401.192719 1627.333374 405.385406 C 1629.375 407.447906 1630.661499 410.234375 1632.588501 412.432281 C 1644.947876 426.536469 1656.598999 441.385406 1670.015625 454.40625 C 1686.489624 470.401031 1699.036499 489.046875 1711.223999 508.140625 C 1712.875 510.723969 1714.619751 513.244751 1716.317749 515.791626 C 1718.25 513.713501 1720.411499 511.791656 1722.083374 509.515625 C 1729.802124 499.03125 1738.848999 490.161469 1750.057251 483.25 C 1755.411499 479.947906 1759.421875 474.53125 1764.286499 470.359375 C 1769.786499 465.651031 1773.166626 467.171875 1777.708374 473.270844 C 1785.140625 483.260406 1785.828125 495.890625 1792.015625 506.385406 C 1797.260376 515.286499 1800.760376 525.192749 1805.328125 534.510376 C 1811.489624 547.098999 1818.203125 559.427124 1824.0625 572.15625 C 1825.442749 575.15625 1825.583374 579.994751 1824.046875 582.723999 C 1822.447876 585.5625 1822.609375 587.5 1823.421875 589.994751 C 1825.942749 597.734375 1829.755249 599.40625 1837.635376 601.234375 C 1850.723999 604.265625 1864.505249 601.395874 1877.244751 606.78125 C 1885.546875 610.291626 1894.109375 613.177124 1902.59375 616.244751 C 1905.989624 617.479126 1909.484375 618.447876 1912.9375 619.541626 C 1913.942749 619.864624 1915.151001 619.942749 1915.901001 620.572876 C 1917.401001 621.822876 1918.651001 623.380249 1920 624.807251 C 1918.151001 625.005249 1916.28125 625.484375 1914.453125 625.348999 C 1907.395874 624.822876 1900.359375 624.015625 1893.307251 623.473999 C 1887.432251 623.020874 1881.5 622.166626 1875.671875 622.604126 C 1864.46875 623.447876 1853.333374 625.114624 1842.15625 626.359375 C 1835.604126 627.09375 1829.041626 627.708374 1822.479126 628.322876 C 1808.385376 629.645874 1794.291626 630.989624 1780.192749 632.213501 C 1767.921875 633.28125 1755.635376 634.192749 1743.359375 635.15625 C 1738.942749 635.505249 1734.494751 636.302124 1730.109375 636.046875 C 1716.682251 635.260376 1705.979126 629.385376 1697.442749 618.765625 C 1691.588501 611.479126 1686.395874 602.895874 1676.1875 600.666626 C 1672.09375 599.776001 1667.854126 599.53125 1663.677124 599.052124 C 1657.880249 598.385376 1652.229126 597.734375 1647.078125 594.286499 C 1643.53125 591.911499 1644.182251 590.098999 1646.65625 588.046875 C 1659.453125 577.395874 1672.53125 567.067749 1685.09375 556.151001 C 1689.947876 551.932251 1693.817749 546.541626 1697.921875 541.515625 C 1702.65625 535.71875 1707.260376 529.8125 1711.65625 523.760376 C 1712.473999 522.625 1712.786499 520.083374 1712.078125 519.041626 C 1705.598999 509.473969 1699.723999 499.276031 1691.927124 490.885406 C 1684.072876 482.4375 1677.859375 473.026031 1671.130249 463.859375 C 1667.75 459.260406 1663.46875 455.322906 1659.510376 451.161469 C 1645.96875 436.911469 1631.901001 423.125 1618.96875 408.34375 C 1608.010376 395.807281 1598.40625 382.09375 1588.09375 368.989563 C 1584.479126 364.401062 1580.645874 359.96875 1576.703125 355.661438 C 1573.609375 352.28125 1571.442749 352.505188 1568.947876 356.322937 C 1564.947876 362.447937 1561.135376 368.703125 1557.192749 374.869812 C 1549.625 386.703125 1542.03125 398.526031 1534.427124 410.338531 C 1531.609375 414.713531 1527.677124 418.6875 1526.078125 423.458344 C 1523.03125 432.505219 1521.697876 442.119781 1518.901001 451.265625 C 1516.578125 458.859375 1512.713501 465.984375 1510.375 473.572906 C 1508.140625 480.848969 1507.302124 488.541656 1505.286499 495.895844 C 1502.770874 505.057281 1499.588501 514.036499 1496.916626 523.15625 C 1496.421875 524.848999 1496.5625 526.973999 1497.09375 528.682251 C 1499.760376 537.276001 1502.09375 545.848999 1508.958374 552.640625 C 1514.770874 558.390625 1515.244751 566.645874 1516.166626 574.484375 C 1516.942749 581.057251 1519.005249 587.53125 1519.286499 594.098999 C 1519.697876 603.760376 1519.526001 613.515625 1518.572876 623.125 C 1518.223999 626.59375 1514.6875 629.286499 1510.244751 629.333374 C 1488.098999 629.59375 1465.958374 630.203125 1443.817749 630.171875 C 1433.515625 630.15625 1422.984375 630.104126 1412.984375 628.026001 C 1401.973999 625.739624 1391.036499 623.916626 1379.911499 624.578125 C 1371.130249 625.098999 1362.447876 627.114624 1353.692749 628.25 C 1347.161499 629.104126 1340.604126 629.963501 1334.03125 630.197876 C 1324.776001 630.526001 1315.489624 630.510376 1306.234375 630.229126 C 1291.375 629.776001 1276.203125 630.630249 1261.78125 627.786499 C 1251.046875 625.666626 1241.359375 629.541626 1231.078125 628.489624 C 1215.447876 626.890625 1199.635376 627.005249 1184.041626 625.192749 C 1172.708374 623.875 1161.697876 619.90625 1150.375 618.427124 C 1137.916626 616.796875 1126.020874 612.447876 1113.171875 612.447876 C 1101.916626 612.447876 1090.401001 612.078125 1079.541626 607.932251 C 1078.40625 607.5 1076.973999 607.828125 1075.682251 607.828125 C 1062.510376 607.828125 1049.328125 608.177124 1036.177124 607.671875 C 1029.942749 607.4375 1023.4375 606.442749 1017.661438 604.208374 C 1010 601.25 1007.651062 594.375 1010.098938 586.5 C 1012.416687 579.046875 1017.296875 573.510376 1023.098938 568.515625 C 1028.432251 563.927124 1033.166626 558.640625 1038.598999 554.1875 C 1048.973999 545.6875 1059.739624 537.661499 1070.166626 529.21875 C 1073.921875 526.182251 1076.927124 527.833374 1079.145874 530.484375 C 1090.927124 544.567749 1102.682251 558.682251 1113.979126 573.15625 C 1120.8125 581.916626 1129.963501 585.213501 1140.260376 587.427124 C 1158.109375 591.265625 1175.78125 595.921875 1193.614624 599.848999 C 1199.536499 601.15625 1205.729126 601.213501 1211.776001 602.005249 C 1214.807251 602.401001 1217.776001 603.291626 1220.807251 603.682251 C 1222.078125 603.84375 1223.442749 603.291626 1224.760376 603.0625 C 1224.359375 601.932251 1224.234375 600.567749 1223.510376 599.708374 C 1217.630249 592.708374 1216.166626 584.177124 1214.53125 575.567749 C 1213.4375 569.791626 1212.182251 563.802124 1209.604126 558.609375 C 1202.427124 544.171875 1194.005249 530.416626 1187.734375 515.432251 C 1184.192749 506.96875 1178.208374 499.328125 1172.390625 492.0625 C 1161.640625 478.630219 1149.53125 466.239594 1139.307251 452.442719 C 1133.416626 444.489594 1129.635376 434.744781 1129.796875 424.270844 C 1129.890625 418.380219 1130.802124 412.489594 1130.625 406.614594 C 1130.427124 399.875 1129.416626 393.161469 1128.796875 386.432312 C 1128.692749 385.302063 1128.78125 384.15625 1128.78125 383.015625 C 1128.78125 370.489563 1128.546875 357.953125 1128.864624 345.4375 C 1129.072876 337.234375 1129.989624 329.041687 1130.75 320.859375 C 1132.067749 306.796875 1126.973999 294.171875 1122.151001 281.463562 C 1119.432251 274.291687 1116.682251 267.114563 1114.359375 259.8125 C 1113.9375 258.489563 1115.067749 255.828125 1116.28125 255.0625 C 1117.463501 254.317688 1120.265625 254.536438 1121.348999 255.484375 C 1132.9375 265.661438 1142.692749 277.390625 1151.354126 290.208313 C 1157.708374 299.609375 1165.333374 308.145813 1172.364624 317.088562 C 1177.375 323.463562 1182.901001 329.520813 1187.1875 336.348938 C 1194.348999 347.744812 1203.213501 356.963562 1214.109375 365.036438 C 1223.697876 372.145813 1232.515625 380.9375 1239.703125 390.46875 C 1247.208374 400.411469 1252.625 411.989594 1258.4375 423.125 C 1262.119751 430.166656 1264.307251 438.005219 1268.166626 444.927094 C 1272.338501 452.40625 1277.208374 459.614594 1282.625 466.244781 C 1289.494751 474.65625 1297.208374 482.385406 1304.588501 490.380219 C 1314.265625 500.864594 1321.739624 512.494751 1327.114624 525.958374 C 1332.682251 539.901001 1339.828125 553.354126 1347.635376 566.203125 C 1351.65625 572.817749 1358.546875 577.723999 1364.328125 583.208374 C 1365.223999 584.057251 1367.125 583.848999 1368.5625 584.130249 C 1368.307251 582.833374 1368.515625 581.005249 1367.729126 580.317749 C 1362.244751 575.520874 1363.489624 568.583374 1362.088501 562.614624 C 1359.041626 549.640625 1357.505249 536.276001 1353.901001 523.484375 C 1351.109375 513.578125 1346.03125 504.328125 1342.145874 494.708344 C 1340.963501 491.78125 1339.9375 488.661469 1339.59375 485.541656 C 1338.453125 475.270844 1338.661499 464.921875 1334.03125 455.109375 C 1331.489624 449.723969 1331.677124 443.109375 1329.640625 437.411469 C 1325.135376 424.817719 1319.953125 412.46875 1315.166626 399.973969 C 1314.302124 397.71875 1314.296875 395.135406 1313.416626 392.885406 C 1310.526001 385.463562 1307.40625 378.130188 1304.390625 370.760437 C 1300.807251 361.994812 1297.364624 353.171875 1293.619751 344.473938 C 1290.291626 336.739563 1286.354126 329.260437 1283.177124 321.46875 C 1277.78125 308.244812 1273.338501 294.609375 1267.40625 281.640625 C 1262.947876 271.895813 1257.697876 262.21875 1251.151001 253.796875 C 1242.911499 243.197937 1233.651001 233.161438 1223.614624 224.25 C 1211.739624 213.703125 1204.135376 200.098938 1194.583374 187.901062 C 1193.713501 186.786438 1193.635376 185.0625 1193.166626 183.625 C 1191.9375 179.838562 1190.291626 176.755188 1186.859375 173.958313 C 1182.651001 170.536438 1180.010376 165.223938 1176.572876 160.822937 C 1169.744751 152.083313 1163.484375 142.765625 1155.78125 134.875 C 1147.213501 126.098938 1136.869751 119.078125 1128.078125 110.489563 C 1117.161499 99.838562 1106.182251 89.036438 1096.838501 77.041687 C 1088.28125 66.057312 1081.296875 53.708313 1074.703125 41.380188 C 1070.125 32.828125 1067.796875 23.098938 1063.708374 14.239563 C 1058.479126 2.901062 1049.369751 2.734375 1041.869751 12.791687 C 1032.083374 25.921875 1024.885376 40.515625 1017.770813 55.072937 C 1013.375 64.067688 1011.078125 74.083313 1007.802063 83.630188 C 1000.177063 105.84375 991.942688 127.776062 981.34375 148.817688 C 975.536438 160.338562 971.734375 172.901062 965.666687 184.265625 C 957.729187 199.130188 948.729187 213.442688 937.796875 226.442688 C 925.5625 240.989563 913.75 255.890625 901.489563 270.416687 C 894.895813 278.223938 887.744812 285.567688 880.84375 293.119812 C 880.625 293.359375 880.369812 293.567688 880.161438 293.817688 C 878.546875 295.744812 875.994812 297.53125 875.640625 299.671875 C 875.385437 301.229187 878.15625 303.1875 879.380188 305.09375 C 886.890625 316.78125 894.546875 328.380188 901.682312 340.291687 C 903.46875 343.28125 903.963562 347.265625 904.3125 350.864563 C 905.588562 364.09375 906.604187 377.401062 911.609375 389.84375 C 913.682312 394.994781 917.046875 399.677094 920.135437 404.359375 C 926.8125 414.473969 933.453125 424.635406 940.572937 434.432281 C 945.286438 440.916656 950.479187 447.135406 956.046875 452.901031 C 966.03125 463.239594 971.96875 475.572906 975.635437 489.244781 C 976.453125 492.296875 977.166687 495.479156 978.614563 498.244781 C 982.489563 505.682281 979.21875 512.526001 976.161438 518.604126 C 970.203125 530.463501 962.4375 541.197876 951.625 549.395874 C 944.895813 554.5 937.890625 559.421875 931.984375 565.395874 C 926.630188 570.8125 920.625 576.046875 918.625 584.1875 C 917.130188 590.302124 919.291687 596.114624 924.572937 599.135376 C 926.932312 600.484375 930.65625 603.359375 930.328125 604.682251 C 929.614563 607.557251 927.1875 610.895874 924.546875 612.197876 C 920.557312 614.171875 915.838562 615.177124 911.348938 615.520874 C 898.635437 616.5 885.8125 616.34375 873.166687 617.822876 C 865.989563 618.661499 859.296875 617.114624 852.395813 616.864624 C 842.614563 616.510376 832.765625 617.791626 822.958313 618.583374 C 817.848938 618.994751 812.78125 619.942749 807.677063 620.5 C 798.171875 621.541626 788.661438 623.151001 779.135437 623.28125 C 766.130188 623.463501 756.640625 616.21875 748.192688 606.890625 C 742.041687 600.109375 741.260437 591.833374 739.401062 583.619751 C 737.640625 575.822876 735.25 568.130249 732.598938 560.583374 C 730.0625 553.364624 727.088562 546.260376 723.791687 539.354126 C 722.21875 536.0625 719.776062 533.005249 717.15625 530.416626 C 705.4375 518.8125 691.75 509.630219 678.838562 499.479156 C 671.651062 493.833344 666.817688 485.911469 663.322937 477.21875 C 660.234375 469.53125 655.807312 467.890625 648.395813 474.041656 C 637.583313 483.005219 626.958313 492.192719 616.229187 501.260406 C 615.421875 501.942719 614.4375 502.416656 613.541687 503 C 607.53125 506.932281 606.5 513.114624 607.984375 519.125 C 610.333313 528.614624 614.098938 537.744751 616.828125 547.151001 C 619.03125 554.739624 620.182312 562.651001 622.5625 570.177124 C 624.59375 576.59375 627.640625 582.703125 630.390625 588.885376 C 631.427063 591.223999 633.010437 593.322876 634.119812 595.635376 C 636.786438 601.1875 640.604187 604.322876 647.171875 605.197876 C 651.208313 605.739624 655.276062 608.723999 658.557312 611.520874 C 661.963562 614.416626 661.109375 618.9375 657.088562 620.354126 C 651.385437 622.354126 645.598938 623.364624 639.296875 621.645874 C 631.03125 619.395874 622.46875 618.265625 614.041687 616.604126 C 608.338562 615.479126 602.697937 613.583374 596.953125 613.234375 C 586.416687 612.59375 575.786438 612.276001 565.255188 612.864624 C 554.213562 613.479126 543.265625 615.791626 532.223938 616.484375 C 520.588562 617.208374 511.833344 611.276001 505.401031 601.984375 C 495.3125 587.40625 485.145844 572.932251 473.390625 559.588501 C 464.072906 549.010376 452 542.520874 439.390625 537.958374 C 429.354156 534.328125 423.671875 527.03125 417.6875 519.734375 C 409.447906 509.6875 402.265625 498.78125 394.296875 488.5 C 389.177094 481.901031 372.270844 478.510406 362.885406 481.411469 C 349.713531 485.479156 338.885406 493.71875 327.666656 501.177094 C 313.713531 510.447906 299.770844 519.791626 286.411469 529.875 C 278.151031 536.109375 270.942719 543.75 263.40625 550.90625 C 262.958344 551.333374 263.359375 553.515625 264.041656 554.130249 C 267.651031 557.395874 271.78125 560.125 275.166656 563.59375 C 280.151031 568.692749 284.723969 574.208374 289.364594 579.640625 C 294.375 585.505249 299.333344 591.421875 304.1875 597.416626 C 307.614594 601.645874 311 605.927124 314.083344 610.40625 C 315.9375 613.09375 314.651031 615.125 311.557281 615.578125 C 309.484375 615.885376 307.166656 616.161499 305.25 615.552124 C 293.609375 611.84375 281.692719 614.369751 269.932281 613.729126 C 259.994781 613.1875 250.041672 613.067749 240.09375 612.697876 C 233.072922 612.432251 226.015625 612.416626 219.046875 611.635376 C 211.083328 610.744751 203.166672 609.307251 195.3125 607.697876 C 193.453125 607.317749 191.927078 605.302124 190.244797 604.036499 C 191.578125 602.505249 192.682297 600.65625 194.28125 599.484375 C 204.385422 592.09375 216.453125 590.067749 228.25 587.307251 C 236.6875 585.338501 245.088547 583.21875 253.5 581.135376 C 259.541656 579.640625 265.59375 578.177124 271.578125 576.463501 C 272.088531 576.317749 272.692719 573.916626 272.255219 573.395874 C 266.177094 566.098999 259.927094 558.942749 253.71875 551.755249 C 249.578125 546.963501 245.822922 541.755249 241.203125 537.484375 C 235.510422 532.213501 229.177078 527.614624 222.96875 522.927124 C 216.765625 518.244751 211.442703 521.380249 206.703125 525.546875 C 198.776047 532.515625 190.875 539.536499 183.380203 546.958374 C 172.588547 557.651001 162.479172 569.046875 151.510422 579.546875 C 139.088547 591.432251 124.911461 600.713501 107.869789 604.807251 C 107.109375 604.989624 106.270836 604.869751 105.46875 604.901001 C 97.145836 605.223999 88.828125 605.598999 80.505211 605.864624 C 68.932289 606.234375 57.359375 606.552124 45.786457 606.84375 C 32.046875 607.197876 18.307291 607.572876 4.5625 607.729126 C 3.046875 607.744751 1.520833 606.395874 0 605.677124 C 1.515625 604.765625 2.979167 603.192749 4.5625 603.0625 C 11.557292 602.46875 18.588541 602.140625 25.614584 602.036499 C 29.046875 601.984375 32.510418 603 35.9375 602.880249 C 50.307293 602.385376 64.666664 601.666626 79.03125 600.984375 C 84.427086 600.723999 89.838539 599.880249 95.208336 600.109375 C 109.098961 600.703125 121.505211 596.8125 132.229172 588.151001 C 140.34375 581.598999 148.291672 574.760376 155.770828 567.494751 C 165.6875 557.854126 174.973953 547.5625 184.734375 537.755249 C 191.755203 530.692749 199.119797 523.963501 206.291672 517.046875 C 206.932297 516.432251 207.130203 515.21875 207.838547 514.822876 C 209.59375 513.833374 212.03125 511.989594 213.296875 512.541626 C 227.088547 518.578125 239.546875 526.515625 248.84375 538.78125 C 251.270828 541.984375 254.375 544.697876 257.354156 547.421875 C 257.822906 547.848999 259.755219 547.526001 260.255219 546.921875 C 265.770844 540.302124 270.708344 533.151001 276.671875 526.979126 C 281.401031 522.088501 287.322906 518.34375 292.729156 514.114624 C 297.760406 510.177094 302.661469 506.046875 307.885406 502.390625 C 318.947906 494.645844 329.9375 486.75 341.458344 479.739594 C 347.125 476.286469 353.375 473.161469 360.723969 473.984375 C 365.380219 474.510406 370.151031 474.223969 374.859375 474.046875 C 379.651031 473.859375 384.125 474.203125 388.182281 477.296875 C 391.895844 480.125 394.46875 478.953125 397.697906 475.286469 C 402.572906 469.739594 408.723969 465.307281 414.354156 460.427094 C 415.286469 459.619781 416.401031 459.010406 417.322906 458.192719 C 423.395844 452.807281 429.505219 447.463531 435.458344 441.942719 C 437.526031 440.026031 439.036469 437.515625 441.046875 435.520844 C 443.40625 433.182281 446.151031 431.234375 448.520844 428.90625 C 455.807281 421.739594 463.052094 414.53125 470.192719 407.223969 C 476.359375 400.911469 482.270844 394.34375 488.463531 388.0625 C 493.380219 383.083313 499.140625 382.625 504.026031 387.5 C 510.651031 394.114594 516.6875 401.328125 522.916687 408.338531 C 526.807312 412.71875 530.572937 417.203125 534.411438 421.630219 C 542.729187 431.21875 552.973938 438.265625 563.458313 445.338531 C 571.067688 450.46875 577.427063 457.864594 583.260437 465.119781 C 590.0625 473.59375 595.78125 482.953125 601.770813 492.057281 C 603.489563 494.671875 604.369812 497.822906 605.947937 500.546875 C 606.369812 501.270844 608.520813 501.947906 608.927063 501.583344 C 614.53125 496.5625 619.8125 491.182281 625.489563 486.25 C 632.71875 479.963531 640.072937 473.791656 647.682312 467.973969 C 655.026062 462.359375 662.276062 464.697906 666.338562 472.645844 C 668.390625 476.661469 670.166687 480.828125 672.25 484.828125 C 672.833313 485.947906 673.192688 488.744781 675.375 485.234375 C 685.125 469.536469 695.479187 454.213531 705.192688 438.494781 C 710.916687 429.239594 715.833313 419.489594 721.145813 409.979156 C 731.479187 391.484375 741.572937 372.84375 752.260437 354.552063 C 762.3125 337.34375 772.473938 320.151062 783.604187 303.635437 C 790.9375 292.755188 799.692688 282.734375 808.578125 273.026062 C 812.505188 268.739563 818.229187 266.03125 823.348938 262.963562 C 824.796875 262.098938 827.364563 261.739563 828.796875 262.4375 C 839.177063 267.484375 849.151062 273.270813 857.541687 281.338562 C 861.223938 284.875 864.369812 288.963562 867.963562 292.59375 C 870.5 295.151062 872.760437 296.041687 875.427063 291.953125 C 878.098938 287.859375 882.020813 284.59375 885.270813 280.864563 C 895.880188 268.682312 906.755188 256.708313 916.932312 244.166687 C 928 230.520813 938.84375 216.640625 948.96875 202.291687 C 958.744812 188.432312 966.083313 173.192688 971.859375 157.135437 C 974.901062 148.682312 979.895813 140.953125 983.333313 132.614563 C 989.796875 116.911438 996.510437 101.239563 1001.765625 85.114563 C 1008.510437 64.416687 1016.052063 44.140625 1026.770874 25.1875 C 1031.3125 17.151062 1036.833374 9.848938 1044.520874 4.25 C 1054.364624 -2.916687 1063.260376 0.151062 1067.625 10.255188 C 1070.96875 17.979187 1073.890625 25.880188 1077.083374 33.671875 C 1081.598999 44.682312 1086.713501 55.3125 1094.5 64.552063 C 1100.09375 71.192688 1104.640625 78.71875 1110.348999 85.239563 C 1116.458374 92.223938 1122.875 99.119812 1130.057251 104.942688 C 1146.875 118.583313 1163.359375 132.255188 1175.880249 150.395813 C 1184.244751 162.515625 1194.65625 173.208313 1203.927124 184.71875 C 1212.53125 195.40625 1220.807251 206.354187 1229.276001 217.151062 C 1235.166626 224.651062 1241.223999 232.020813 1247.052124 239.567688 C 1252.932251 247.182312 1258.614624 254.942688 1264.395874 262.635437 C 1265.65625 264.307312 1266.776001 265.869812 1268.838501 263.213562 C 1281.098999 247.416687 1293.166626 231.463562 1308.083374 217.9375 C 1314.203125 212.390625 1319.776001 206.25 1325.677124 200.458313 C 1329.380249 196.822937 1332.541626 197.375 1335.651001 201.427063 C 1341.635376 209.21875 1347.661499 217 1354.041626 224.46875 C 1365.375 237.734375 1376.869751 250.875 1388.5625 263.828125 C 1391.6875 267.291687 1395.479126 270.40625 1399.526001 272.65625 C 1401.59375 273.8125 1405.145874 273.375 1407.635376 272.510437 C 1420.911499 267.916687 1427.947876 269.932312 1436.479126 281.505188 C 1440.796875 287.364563 1446.03125 292.557312 1450.885376 298.015625 C 1454.052124 301.578125 1457.286499 305.083313 1460.729126 308.859375 M 930.729187 548.765625 C 934.182312 544.661499 937.901062 540.755249 941.026062 536.416626 C 947.229187 527.796875 945.15625 518.447876 937.567688 512.151001 C 932.598938 508.036469 927.526062 504.026031 922.776062 499.666656 C 920.78125 497.833344 919.916687 494.671875 917.8125 493.057281 C 909.739563 486.848969 901.786438 480.3125 893.015625 475.234375 C 880.885437 468.203125 870.885437 459.005219 862.53125 448.067719 C 857.723938 441.770844 853.291687 434.895844 854.578125 426.010406 C 856.135437 415.208344 857.020813 404.302094 858.671875 393.515625 C 859.661438 387.0625 861.635437 380.765625 863.036438 374.375 C 864.546875 367.5 867.171875 360.567688 867.026062 353.708313 C 866.796875 342.515625 865.020813 331.3125 863.296875 320.208313 C 862.322937 313.953125 860.854187 307.572937 858.338562 301.802063 C 853.583313 290.901062 846.791687 281.296875 837.90625 273.125 C 833.880188 269.421875 826.192688 267.942688 821.135437 270.630188 C 815.416687 273.666687 810.578125 277.385437 806.614563 282.442688 C 799.578125 291.416687 791.729187 299.848938 785.53125 309.364563 C 775.177063 325.255188 765.588562 341.671875 756.166687 358.151062 C 745.364563 377.046875 735.208313 396.307281 724.546875 415.286469 C 718.59375 425.864594 712.354187 436.296875 705.932312 446.598969 C 697.375 460.328125 688.421875 473.8125 679.916687 487.567719 C 679.078125 488.927094 679.432312 492.057281 680.484375 493.338531 C 682.875 496.25 685.776062 498.942719 688.947937 500.973969 C 700.734375 508.520844 712.421875 516.296875 724.713562 522.947876 C 733.770813 527.854126 742.578125 532.875 749.609375 540.416626 C 757.5 548.880249 765.442688 557.359375 772.578125 566.447876 C 779.786438 575.619751 786.192688 585.4375 792.609375 595.197876 C 795.203125 599.140625 796.421875 602.536499 803.010437 601.348999 C 812.541687 599.635376 822.510437 600.395874 832.286438 599.994751 C 837.197937 599.796875 842.088562 599.244751 847 599.078125 C 851.765625 598.916626 856.541687 599.140625 861.302063 599 C 863.786438 598.927124 866.328125 598.713501 868.713562 598.072876 C 878.9375 595.3125 887 589.302124 894.770813 582.130249 C 906.619812 571.197876 919.645813 561.552124 930.729187 548.765625 M 408.78125 498.979156 C 410.963531 501.489594 413.197906 503.963531 415.328125 506.526031 C 418.130219 509.895844 420.296875 514.104126 423.71875 516.609375 C 434.604156 524.583374 445.854156 532.072876 457.135406 539.494751 C 469.166656 547.40625 480.427094 556.447876 490.010406 566.984375 C 503.140625 581.416626 518.213562 589.333374 537.796875 586.265625 C 556.223938 583.375 570.078125 573.171875 579.619812 557.3125 C 583.338562 551.135376 586.505188 544.5625 589.260437 537.895874 C 592.203125 530.786499 596.734375 524.182251 596.208313 515.828125 C 595.921875 511.28125 596.885437 506.671875 597.020813 502.083344 C 597.09375 499.526031 597.197937 496.729156 596.296875 494.427094 C 590.984375 480.854156 580.421875 470.963531 571.604187 459.848969 C 569.739563 457.494781 568.046875 454.8125 565.692688 453.078125 C 557.270813 446.880219 548.4375 441.229156 540.078125 434.947906 C 535.645813 431.619781 531.489563 427.739594 527.880188 423.53125 C 519.203125 413.401031 511.026031 402.84375 502.421875 392.651031 C 499.177094 388.8125 495.234375 388.942688 491.8125 392.505219 C 488.609375 395.838531 485.739594 399.505219 482.453125 402.75 C 467.125 417.885406 451.708344 432.921875 436.322906 447.994781 C 435.854156 448.447906 435.421875 448.9375 434.9375 449.369781 C 422.833344 460.1875 410.75 471.026031 398.588531 481.786469 C 396.802094 483.369781 397.067719 484.229156 398.5625 485.958344 C 402.010406 489.958344 405.072906 494.291656 408.78125 498.979156 M 1375.609375 256.875 C 1371.010376 251.942688 1366.416626 247.010437 1361.807251 242.09375 C 1358.291626 238.338562 1354.572876 234.755188 1351.255249 230.828125 C 1344.885376 223.28125 1338.723999 215.552063 1332.505249 207.869812 C 1330.005249 204.78125 1327.796875 204.927063 1325.046875 207.8125 C 1314.34375 219.041687 1303.270874 229.9375 1292.744751 241.328125 C 1285.479126 249.192688 1278.875 257.666687 1271.994751 265.885437 C 1271.625 266.333313 1271.473999 266.963562 1271.21875 267.510437 C 1271.932251 267.703125 1272.723999 268.213562 1273.338501 268.052063 C 1279.34375 266.479187 1285.328125 264.84375 1291.291626 263.130188 C 1310.739624 257.552063 1318.875 263.171875 1331.677124 276.770813 C 1334.03125 279.265625 1335.916626 282.192688 1338.171875 284.791687 C 1345.255249 292.9375 1352.588501 300.869812 1359.489624 309.171875 C 1366.145874 317.177063 1374.114624 322.338562 1384.604126 323.828125 C 1394.328125 325.213562 1403.958374 327.270813 1413.619751 329.083313 C 1421.9375 330.645813 1428.661499 335.4375 1435.364624 340.151062 C 1440.6875 343.895813 1446.010376 347.697937 1450.958374 351.911438 C 1456.536499 356.661438 1461.583374 362.026062 1467.078125 366.875 C 1472.614624 371.765625 1478.59375 376.15625 1484.057251 381.119812 C 1489.046875 385.640625 1494.166626 389.479187 1500.880249 391.276031 C 1503.96875 392.104156 1507.015625 394.328125 1509.276001 396.692719 C 1512.578125 400.140625 1515 404.416656 1518.130249 408.057281 C 1519.3125 409.427094 1521.427124 409.994781 1523.119751 410.927094 C 1522.604126 409.239594 1522.401001 407.369781 1521.515625 405.90625 C 1519.921875 403.270844 1517.760376 400.979156 1516.130249 398.364594 C 1510.979126 390.104187 1506.177124 381.619812 1500.84375 373.484375 C 1493.432251 362.1875 1486.078125 350.822937 1477.947876 340.052063 C 1467.479126 326.1875 1456.291626 312.869812 1445.348999 299.364563 C 1443.395874 296.953125 1441.390625 294.46875 1438.973999 292.572937 C 1434.005249 288.671875 1428.723999 285.166687 1423.604126 281.458313 C 1419.598999 278.557312 1415.6875 274.1875 1410.28125 277.026062 C 1402 281.375 1395.90625 277.6875 1390.302124 272.416687 C 1385.28125 267.697937 1380.8125 262.401062 1375.609375 256.875 M 1805.854126 547.791626 C 1805.526001 547.4375 1805.09375 547.135376 1804.895874 546.723999 C 1796.744751 529.609375 1788.791626 512.401001 1780.390625 495.411469 C 1777.5 489.567719 1773.588501 484.21875 1769.973999 478.75 C 1767.875 475.572906 1765.515625 474.979156 1762.833374 478.479156 C 1761.166626 480.651031 1759.052124 482.505219 1757.010376 484.369781 C 1746.411499 494.057281 1735.651001 503.578125 1725.229126 513.458374 C 1722.895874 515.671875 1720.1875 519.182251 1720.34375 521.947876 C 1720.598999 526.59375 1722.598999 531.3125 1724.604126 535.666626 C 1727.817749 542.640625 1732.635376 549.03125 1734.890625 556.255249 C 1736.817749 562.427124 1740.166626 562.729126 1745.302124 563.052124 C 1757.260376 563.802124 1769.260376 561.005249 1781.25 565.59375 C 1792.088501 569.739624 1803.755249 571.723999 1815.067749 574.598999 C 1816.020874 574.84375 1817.104126 574.588501 1818.119751 574.5625 C 1817.9375 573.453125 1818.015625 572.208374 1817.53125 571.25 C 1813.697876 563.723999 1809.760376 556.255249 1805.854126 547.791626 Z"/>
</svg>
