<svg xmlns="http://www.w3.org/2000/svg" xmlns:xlink="http://www.w3.org/1999/xlink" width="1920" zoomAndPan="magnify" viewBox="0 200 1440 809.999993" height="1080" preserveAspectRatio="xMidYMid meet" version="1.0"><path fill="#FFFFFF" d="M 1095.546875 564.394531 C 1101.707031 572.105469 1108.28125 579.242188 1113.535156 587.246094 C 1124.433594 603.859375 1134.628906 620.941406 1145.148438 637.804688 C 1145.527344 638.414062 1146.246094 638.925781 1146.921875 639.179688 C 1147.15625 639.269531 1147.839844 638.519531 1148.140625 638.039062 C 1152.21875 631.558594 1156.1875 625.011719 1160.335938 618.574219 C 1164.941406 611.433594 1169.679688 604.378906 1174.394531 597.308594 C 1177.984375 591.933594 1181.222656 592.378906 1185.550781 597.144531 C 1194.457031 606.953125 1200.546875 619.054688 1210.777344 627.753906 C 1214.148438 630.617188 1217.390625 633.644531 1220.5 636.789062 C 1222.03125 638.335938 1222.996094 640.425781 1224.441406 642.074219 C 1233.710938 652.652344 1242.449219 663.789062 1252.511719 673.554688 C 1264.867188 685.550781 1274.277344 699.535156 1283.417969 713.855469 C 1284.65625 715.792969 1285.964844 717.683594 1287.238281 719.59375 C 1288.6875 718.035156 1290.308594 716.59375 1291.5625 714.886719 C 1297.351562 707.023438 1304.136719 700.371094 1312.542969 695.1875 C 1316.558594 692.710938 1319.566406 688.648438 1323.214844 685.519531 C 1327.339844 681.988281 1329.875 683.128906 1333.28125 687.703125 C 1338.855469 695.195312 1339.371094 704.667969 1344.011719 712.539062 C 1347.945312 719.214844 1350.570312 726.644531 1353.996094 733.632812 C 1358.617188 743.074219 1363.652344 752.320312 1368.046875 761.867188 C 1369.082031 764.117188 1369.1875 767.746094 1368.035156 769.792969 C 1366.835938 771.921875 1366.957031 773.375 1367.566406 775.246094 C 1369.457031 781.050781 1372.316406 782.304688 1378.226562 783.675781 C 1388.042969 785.949219 1398.378906 783.796875 1407.933594 787.835938 C 1414.160156 790.46875 1420.582031 792.632812 1426.945312 794.933594 C 1429.492188 795.859375 1432.113281 796.585938 1434.703125 797.40625 C 1435.457031 797.648438 1436.363281 797.707031 1436.925781 798.179688 C 1438.050781 799.117188 1438.988281 800.285156 1440 801.355469 C 1438.613281 801.503906 1437.210938 801.863281 1435.839844 801.761719 C 1430.546875 801.367188 1425.269531 800.761719 1419.980469 800.355469 C 1415.574219 800.015625 1411.125 799.375 1406.753906 799.703125 C 1398.351562 800.335938 1390 801.585938 1381.617188 802.519531 C 1376.703125 803.070312 1371.78125 803.53125 1366.859375 803.992188 C 1356.289062 804.984375 1345.71875 805.992188 1335.144531 806.910156 C 1325.941406 807.710938 1316.726562 808.394531 1307.519531 809.117188 C 1304.207031 809.378906 1300.871094 809.976562 1297.582031 809.785156 C 1287.511719 809.195312 1279.484375 804.789062 1273.082031 796.824219 C 1268.691406 791.359375 1264.796875 784.921875 1257.140625 783.25 C 1254.070312 782.582031 1250.890625 782.398438 1247.757812 782.039062 C 1243.410156 781.539062 1239.171875 781.050781 1235.308594 778.464844 C 1232.648438 776.683594 1233.136719 775.324219 1234.992188 773.785156 C 1244.589844 765.796875 1254.398438 758.050781 1263.820312 749.863281 C 1267.460938 746.699219 1270.363281 742.65625 1273.441406 738.886719 C 1276.992188 734.539062 1280.445312 730.109375 1283.742188 725.570312 C 1284.355469 724.71875 1284.589844 722.8125 1284.058594 722.03125 C 1279.199219 714.855469 1274.792969 707.207031 1268.945312 700.914062 C 1263.054688 694.578125 1258.394531 687.519531 1253.347656 680.644531 C 1250.8125 677.195312 1247.601562 674.242188 1244.632812 671.121094 C 1234.476562 660.433594 1223.925781 650.09375 1214.226562 639.007812 C 1206.007812 629.605469 1198.804688 619.320312 1191.070312 609.492188 C 1188.359375 606.050781 1185.484375 602.726562 1182.527344 599.496094 C 1180.207031 596.960938 1178.582031 597.128906 1176.710938 599.992188 C 1173.710938 604.585938 1170.851562 609.277344 1167.894531 613.902344 C 1162.21875 622.777344 1156.523438 631.644531 1150.820312 640.503906 C 1148.707031 643.785156 1145.757812 646.765625 1144.558594 650.34375 C 1142.273438 657.128906 1141.273438 664.339844 1139.175781 671.199219 C 1137.433594 676.894531 1134.535156 682.238281 1132.78125 687.929688 C 1131.105469 693.386719 1130.476562 699.15625 1128.964844 704.671875 C 1127.078125 711.542969 1124.691406 718.277344 1122.6875 725.117188 C 1122.316406 726.386719 1122.421875 727.980469 1122.820312 729.261719 C 1124.820312 735.707031 1126.570312 742.136719 1131.71875 747.230469 C 1136.078125 751.542969 1136.433594 757.734375 1137.125 763.613281 C 1137.707031 768.542969 1139.253906 773.398438 1139.464844 778.324219 C 1139.773438 785.570312 1139.644531 792.886719 1138.929688 800.09375 C 1138.667969 802.695312 1136.015625 804.714844 1132.683594 804.75 C 1116.074219 804.945312 1099.46875 805.402344 1082.863281 805.378906 C 1075.136719 805.367188 1067.238281 805.328125 1059.738281 803.769531 C 1051.480469 802.054688 1043.277344 800.6875 1034.933594 801.183594 C 1028.347656 801.574219 1021.835938 803.085938 1015.269531 803.9375 C 1010.371094 804.578125 1005.453125 805.222656 1000.523438 805.398438 C 993.582031 805.644531 986.617188 805.632812 979.675781 805.421875 C 968.53125 805.082031 957.152344 805.722656 946.335938 803.589844 C 938.285156 802 931.019531 804.90625 923.308594 804.117188 C 911.585938 802.917969 899.726562 803.003906 888.03125 801.644531 C 879.53125 800.65625 871.273438 797.679688 862.78125 796.570312 C 853.4375 795.347656 844.515625 792.085938 834.878906 792.085938 C 826.4375 792.085938 817.800781 791.808594 809.65625 788.699219 C 808.804688 788.375 807.730469 788.621094 806.761719 788.621094 C 796.882812 788.621094 786.996094 788.882812 777.132812 788.503906 C 772.457031 788.328125 767.578125 787.582031 763.246094 785.90625 C 757.5 783.6875 755.738281 778.53125 757.574219 772.625 C 759.3125 767.035156 762.972656 762.882812 767.324219 759.136719 C 771.324219 755.695312 774.875 751.730469 778.949219 748.390625 C 786.730469 742.015625 794.804688 735.996094 802.625 729.664062 C 805.441406 727.386719 807.695312 728.625 809.359375 730.613281 C 818.195312 741.175781 827.011719 751.761719 835.484375 762.617188 C 840.609375 769.1875 847.472656 771.660156 855.195312 773.320312 C 868.582031 776.199219 881.835938 779.691406 895.210938 782.636719 C 899.652344 783.617188 904.296875 783.660156 908.832031 784.253906 C 911.105469 784.550781 913.332031 785.21875 915.605469 785.511719 C 916.558594 785.632812 917.582031 785.21875 918.570312 785.046875 C 918.269531 784.199219 918.175781 783.175781 917.632812 782.53125 C 913.222656 777.28125 912.125 770.882812 910.898438 764.425781 C 910.078125 760.09375 909.136719 755.601562 907.203125 751.707031 C 901.820312 740.878906 895.503906 730.5625 890.800781 719.324219 C 888.144531 712.976562 883.65625 707.246094 879.292969 701.796875 C 871.230469 691.722656 862.148438 682.429688 854.480469 672.082031 C 850.0625 666.117188 847.226562 658.808594 847.347656 650.953125 C 847.417969 646.535156 848.101562 642.117188 847.96875 637.710938 C 847.820312 632.65625 847.0625 627.621094 846.597656 622.574219 C 846.519531 621.726562 846.585938 620.867188 846.585938 620.011719 C 846.585938 610.617188 846.410156 601.214844 846.648438 591.828125 C 846.804688 585.675781 847.492188 579.53125 848.0625 573.394531 C 849.050781 562.847656 845.230469 553.378906 841.613281 543.847656 C 839.574219 538.46875 837.511719 533.085938 835.769531 527.609375 C 835.453125 526.617188 836.300781 524.621094 837.210938 524.046875 C 838.097656 523.488281 840.199219 523.652344 841.011719 524.363281 C 849.703125 531.996094 857.019531 540.792969 863.515625 550.40625 C 868.28125 557.457031 874 563.859375 879.273438 570.566406 C 883.03125 575.347656 887.175781 579.890625 890.390625 585.011719 C 895.761719 593.558594 902.410156 600.472656 910.582031 606.527344 C 917.773438 611.859375 924.386719 618.453125 929.777344 625.601562 C 935.40625 633.058594 939.46875 641.742188 943.828125 650.09375 C 946.589844 655.375 948.230469 661.253906 951.125 666.445312 C 954.253906 672.054688 957.90625 677.460938 961.96875 682.433594 C 967.121094 688.742188 972.90625 694.539062 978.441406 700.535156 C 985.699219 708.398438 991.304688 717.121094 995.335938 727.21875 C 999.511719 737.675781 1004.871094 747.765625 1010.726562 757.402344 C 1013.742188 762.363281 1018.910156 766.042969 1023.246094 770.15625 C 1023.917969 770.792969 1025.34375 770.636719 1026.421875 770.847656 C 1026.230469 769.875 1026.386719 768.503906 1025.796875 767.988281 C 1021.683594 764.390625 1022.617188 759.1875 1021.566406 754.710938 C 1019.28125 744.980469 1018.128906 734.957031 1015.425781 725.363281 C 1013.332031 717.933594 1009.523438 710.996094 1006.609375 703.78125 C 1005.722656 701.585938 1004.953125 699.246094 1004.695312 696.90625 C 1003.839844 689.203125 1003.996094 681.441406 1000.523438 674.082031 C 998.617188 670.042969 998.757812 665.082031 997.230469 660.808594 C 993.851562 651.363281 989.964844 642.101562 986.375 632.730469 C 985.726562 631.039062 985.722656 629.101562 985.0625 627.414062 C 982.894531 621.847656 980.554688 616.347656 978.292969 610.820312 C 975.605469 604.246094 973.023438 597.628906 970.214844 591.105469 C 967.71875 585.304688 964.765625 579.695312 962.382812 573.851562 C 958.335938 563.933594 955.003906 553.707031 950.554688 543.980469 C 947.210938 536.671875 943.273438 529.414062 938.363281 523.097656 C 932.183594 515.148438 925.238281 507.621094 917.710938 500.9375 C 908.804688 493.027344 903.101562 482.824219 895.9375 473.675781 C 895.285156 472.839844 895.226562 471.546875 894.875 470.46875 C 893.953125 467.628906 892.71875 465.316406 890.144531 463.21875 C 886.988281 460.652344 885.007812 456.667969 882.429688 453.367188 C 877.308594 446.8125 872.613281 439.824219 866.835938 433.90625 C 860.410156 427.324219 852.652344 422.058594 846.058594 415.617188 C 837.871094 407.628906 829.636719 399.527344 822.628906 390.53125 C 816.210938 382.292969 810.972656 373.03125 806.027344 363.785156 C 802.59375 357.371094 800.847656 350.074219 797.78125 343.429688 C 793.859375 334.925781 787.027344 334.800781 781.402344 342.34375 C 774.0625 352.191406 768.664062 363.136719 763.328125 374.054688 C 760.03125 380.800781 758.308594 388.3125 755.851562 395.472656 C 750.132812 412.132812 743.957031 428.582031 736.007812 444.363281 C 731.652344 453.003906 728.800781 462.425781 724.25 470.949219 C 718.296875 482.097656 711.546875 492.832031 703.347656 502.582031 C 694.171875 513.492188 685.3125 524.667969 676.117188 535.5625 C 671.171875 541.417969 665.808594 546.925781 660.632812 552.589844 C 660.46875 552.769531 660.277344 552.925781 660.121094 553.113281 C 658.910156 554.558594 656.996094 555.898438 656.730469 557.503906 C 656.539062 558.671875 658.617188 560.140625 659.535156 561.570312 C 665.167969 570.335938 670.910156 579.035156 676.261719 587.96875 C 677.601562 590.210938 677.972656 593.199219 678.234375 595.898438 C 679.191406 605.820312 679.953125 615.800781 683.707031 625.132812 C 685.261719 628.996094 687.785156 632.507812 690.101562 636.019531 C 695.109375 643.605469 700.089844 651.226562 705.429688 658.574219 C 708.964844 663.4375 712.859375 668.101562 717.035156 672.425781 C 724.523438 680.179688 728.976562 689.429688 731.726562 699.683594 C 732.339844 701.972656 732.875 704.359375 733.960938 706.433594 C 736.867188 712.011719 734.414062 717.144531 732.121094 721.703125 C 727.652344 730.597656 721.828125 738.648438 713.71875 744.796875 C 708.671875 748.625 703.417969 752.316406 698.988281 756.796875 C 694.972656 760.859375 690.46875 764.785156 688.96875 770.890625 C 687.847656 775.476562 689.46875 779.835938 693.429688 782.101562 C 695.199219 783.113281 697.992188 785.269531 697.746094 786.261719 C 697.210938 788.417969 695.390625 790.921875 693.410156 791.898438 C 690.417969 793.378906 686.878906 794.132812 683.511719 794.390625 C 673.976562 795.125 664.359375 795.007812 654.875 796.117188 C 649.492188 796.746094 644.472656 795.585938 639.296875 795.398438 C 631.960938 795.132812 624.574219 796.09375 617.21875 796.6875 C 613.386719 796.996094 609.585938 797.707031 605.757812 798.125 C 598.628906 798.90625 591.496094 800.113281 584.351562 800.210938 C 574.597656 800.347656 567.480469 794.914062 561.144531 787.917969 C 556.53125 782.832031 555.945312 776.625 554.550781 770.464844 C 553.230469 764.617188 551.4375 758.847656 549.449219 753.1875 C 547.546875 747.773438 545.316406 742.445312 542.84375 737.265625 C 541.664062 734.796875 539.832031 732.503906 537.867188 730.5625 C 529.078125 721.859375 518.8125 714.972656 509.128906 707.359375 C 503.738281 703.125 500.113281 697.183594 497.492188 690.664062 C 495.175781 684.898438 491.855469 683.667969 486.296875 688.28125 C 478.1875 695.003906 470.21875 701.894531 462.171875 708.695312 C 461.566406 709.207031 460.828125 709.5625 460.15625 710 C 455.648438 712.949219 454.875 717.585938 455.988281 722.09375 C 457.75 729.210938 460.574219 736.058594 462.621094 743.113281 C 464.273438 748.804688 465.136719 754.738281 466.921875 760.382812 C 468.445312 765.195312 470.730469 769.777344 472.792969 774.414062 C 473.570312 776.167969 474.757812 777.742188 475.589844 779.476562 C 477.589844 783.640625 480.453125 785.992188 485.378906 786.648438 C 488.40625 787.054688 491.457031 789.292969 493.917969 791.390625 C 496.472656 793.5625 495.832031 796.953125 492.816406 798.015625 C 488.539062 799.515625 484.199219 800.273438 479.472656 798.984375 C 473.273438 797.296875 466.851562 796.449219 460.53125 795.203125 C 456.253906 794.359375 452.023438 792.9375 447.714844 792.675781 C 439.8125 792.195312 431.839844 791.957031 423.941406 792.398438 C 415.660156 792.859375 407.449219 794.59375 399.167969 795.113281 C 390.441406 795.65625 383.875 791.207031 379.050781 784.238281 C 371.484375 773.304688 363.859375 762.449219 355.042969 752.441406 C 348.054688 744.507812 339 739.640625 329.542969 736.21875 C 322.015625 733.496094 317.753906 728.023438 313.265625 722.550781 C 307.085938 715.015625 301.699219 706.835938 295.722656 699.125 C 291.882812 694.175781 279.203125 691.632812 272.164062 693.808594 C 262.285156 696.859375 254.164062 703.039062 245.75 708.632812 C 235.285156 715.585938 224.828125 722.59375 214.808594 730.15625 C 208.613281 734.832031 203.207031 740.5625 197.554688 745.929688 C 197.21875 746.25 197.519531 747.886719 198.03125 748.347656 C 200.738281 750.796875 203.835938 752.84375 206.375 755.445312 C 210.113281 759.269531 213.542969 763.40625 217.023438 767.480469 C 220.78125 771.878906 224.5 776.316406 228.140625 780.8125 C 230.710938 783.984375 233.25 787.195312 235.5625 790.554688 C 236.953125 792.570312 235.988281 794.09375 233.667969 794.433594 C 232.113281 794.664062 230.375 794.871094 228.9375 794.414062 C 220.207031 791.632812 211.269531 793.527344 202.449219 793.046875 C 194.996094 792.640625 187.53125 792.550781 180.070312 792.273438 C 174.804688 792.074219 169.511719 792.0625 164.285156 791.476562 C 158.3125 790.808594 152.375 789.730469 146.484375 788.523438 C 145.089844 788.238281 143.945312 786.726562 142.683594 785.777344 C 143.683594 784.628906 144.511719 783.242188 145.710938 782.363281 C 153.289062 776.820312 162.339844 775.300781 171.1875 773.230469 C 177.515625 771.753906 183.816406 770.164062 190.125 768.601562 C 194.65625 767.480469 199.195312 766.382812 203.683594 765.097656 C 204.066406 764.988281 204.519531 763.1875 204.191406 762.796875 C 199.632812 757.324219 194.945312 751.957031 190.289062 746.566406 C 187.183594 742.972656 184.367188 739.066406 180.902344 735.863281 C 176.632812 731.910156 171.882812 728.460938 167.226562 724.945312 C 162.574219 721.433594 158.582031 723.785156 155.027344 726.910156 C 149.082031 732.136719 143.15625 737.402344 137.535156 742.96875 C 129.441406 750.988281 121.859375 759.535156 113.632812 767.410156 C 104.316406 776.324219 93.683594 783.285156 80.902344 786.355469 C 80.332031 786.492188 79.703125 786.402344 79.101562 786.425781 C 72.859375 786.667969 66.621094 786.949219 60.378906 787.148438 C 51.699219 787.425781 43.019531 787.664062 34.339844 787.882812 C 24.035156 788.148438 13.730469 788.429688 3.421875 788.546875 C 2.285156 788.558594 1.140625 787.546875 0 787.007812 C 1.136719 786.324219 2.234375 785.144531 3.421875 785.046875 C 8.667969 784.601562 13.941406 784.355469 19.210938 784.277344 C 21.785156 784.238281 24.382812 785 26.953125 784.910156 C 37.730469 784.539062 48.5 784 59.273438 783.488281 C 63.320312 783.292969 67.378906 782.660156 71.40625 782.832031 C 81.824219 783.277344 91.128906 780.359375 99.171875 773.863281 C 105.257812 768.949219 111.21875 763.820312 116.828125 758.371094 C 124.265625 751.140625 131.230469 743.421875 138.550781 736.066406 C 143.816406 730.769531 149.339844 725.722656 154.71875 720.535156 C 155.199219 720.074219 155.347656 719.164062 155.878906 718.867188 C 157.195312 718.125 159.023438 716.742188 159.972656 717.15625 C 170.316406 721.683594 179.660156 727.636719 186.632812 736.835938 C 188.453125 739.238281 190.78125 741.273438 193.015625 743.316406 C 193.367188 743.636719 194.816406 743.394531 195.191406 742.941406 C 199.328125 737.976562 203.03125 732.613281 207.503906 727.984375 C 211.050781 724.316406 215.492188 721.507812 219.546875 718.335938 C 223.320312 715.382812 226.996094 712.285156 230.914062 709.542969 C 239.210938 703.734375 247.453125 697.8125 256.09375 692.554688 C 260.34375 689.964844 265.03125 687.621094 270.542969 688.238281 C 274.035156 688.632812 277.613281 688.417969 281.144531 688.285156 C 284.738281 688.144531 288.09375 688.402344 291.136719 690.722656 C 293.921875 692.84375 295.851562 691.964844 298.273438 689.214844 C 301.929688 685.054688 306.542969 681.730469 310.765625 678.070312 C 311.464844 677.464844 312.300781 677.007812 312.992188 676.394531 C 317.546875 672.355469 322.128906 668.347656 326.59375 664.207031 C 328.144531 662.769531 329.277344 660.886719 330.785156 659.390625 C 332.554688 657.636719 334.613281 656.175781 336.390625 654.429688 C 341.855469 649.054688 347.289062 643.648438 352.644531 638.167969 C 357.269531 633.433594 361.703125 628.507812 366.347656 623.796875 C 370.035156 620.0625 374.355469 619.71875 378.019531 623.375 C 382.988281 628.335938 387.515625 633.746094 392.1875 639.003906 C 395.105469 642.289062 397.929688 645.652344 400.808594 648.972656 C 407.046875 656.164062 414.730469 661.449219 422.59375 666.753906 C 428.300781 670.601562 433.070312 676.148438 437.445312 681.589844 C 442.546875 687.945312 446.835938 694.964844 451.328125 701.792969 C 452.617188 703.753906 453.277344 706.117188 454.460938 708.160156 C 454.777344 708.703125 456.390625 709.210938 456.695312 708.9375 C 460.898438 705.171875 464.859375 701.136719 469.117188 697.4375 C 474.539062 692.722656 480.054688 688.09375 485.761719 683.730469 C 491.269531 679.519531 496.707031 681.273438 499.753906 687.234375 C 501.292969 690.246094 502.625 693.371094 504.1875 696.371094 C 504.625 697.210938 504.894531 699.308594 506.53125 696.675781 C 513.84375 684.902344 521.609375 673.410156 528.894531 661.621094 C 533.1875 654.679688 536.875 647.367188 540.859375 640.234375 C 548.609375 626.363281 556.179688 612.382812 564.195312 598.664062 C 571.734375 585.757812 579.355469 572.863281 587.703125 560.476562 C 593.203125 552.316406 599.769531 544.800781 606.433594 537.519531 C 609.378906 534.304688 613.671875 532.273438 617.511719 529.972656 C 618.597656 529.324219 620.523438 529.054688 621.597656 529.578125 C 629.382812 533.363281 636.863281 537.703125 643.15625 543.753906 C 645.917969 546.40625 648.277344 549.472656 650.972656 552.195312 C 652.875 554.113281 654.570312 554.78125 656.570312 551.714844 C 658.574219 548.644531 661.515625 546.195312 663.953125 543.398438 C 671.910156 534.261719 680.066406 525.28125 687.699219 515.875 C 696 505.640625 704.132812 495.230469 711.726562 484.46875 C 719.058594 474.074219 724.5625 462.644531 728.894531 450.601562 C 731.175781 444.261719 734.921875 438.464844 737.5 432.210938 C 742.347656 420.433594 747.382812 408.679688 751.324219 396.585938 C 756.382812 381.0625 762.039062 365.855469 770.078125 351.640625 C 773.484375 345.613281 777.625 340.136719 783.390625 335.9375 C 790.773438 330.5625 797.445312 332.863281 800.71875 340.441406 C 803.226562 346.234375 805.417969 352.160156 807.8125 358.003906 C 811.199219 366.261719 815.035156 374.234375 820.875 381.164062 C 825.070312 386.144531 828.480469 391.789062 832.761719 396.679688 C 837.34375 401.917969 842.15625 407.089844 847.542969 411.457031 C 860.15625 421.6875 872.519531 431.941406 881.910156 445.546875 C 888.183594 454.636719 895.992188 462.65625 902.945312 471.289062 C 909.398438 479.304688 915.605469 487.515625 921.957031 495.613281 C 926.375 501.238281 930.917969 506.765625 935.289062 512.425781 C 939.699219 518.136719 943.960938 523.957031 948.296875 529.726562 C 949.242188 530.980469 950.082031 532.152344 951.628906 530.160156 C 960.824219 518.3125 969.875 506.347656 981.0625 496.203125 C 985.652344 492.042969 989.832031 487.4375 994.257812 483.09375 C 997.035156 480.367188 999.40625 480.78125 1001.738281 483.820312 C 1006.226562 489.664062 1010.746094 495.5 1015.53125 501.101562 C 1024.03125 511.050781 1032.652344 520.90625 1041.421875 530.621094 C 1043.765625 533.21875 1046.609375 535.554688 1049.644531 537.242188 C 1051.195312 538.109375 1053.859375 537.78125 1055.726562 537.132812 C 1065.683594 533.6875 1070.960938 535.199219 1077.359375 543.878906 C 1080.597656 548.273438 1084.523438 552.167969 1088.164062 556.261719 C 1090.539062 558.933594 1092.964844 561.5625 1095.546875 564.394531 M 698.046875 744.324219 C 700.636719 741.246094 703.425781 738.316406 705.769531 735.0625 C 710.421875 728.597656 708.867188 721.585938 703.175781 716.863281 C 699.449219 713.777344 695.644531 710.769531 692.082031 707.5 C 690.585938 706.125 689.9375 703.753906 688.359375 702.542969 C 682.304688 697.886719 676.339844 692.984375 669.761719 689.175781 C 660.664062 683.902344 653.164062 677.003906 646.898438 668.800781 C 643.292969 664.078125 639.96875 658.921875 640.933594 652.257812 C 642.101562 644.15625 642.765625 635.976562 644.003906 627.886719 C 644.746094 623.046875 646.226562 618.324219 647.277344 613.53125 C 648.410156 608.375 650.378906 603.175781 650.269531 598.03125 C 650.097656 589.636719 648.765625 581.234375 647.472656 572.90625 C 646.742188 568.214844 645.640625 563.429688 643.753906 559.101562 C 640.1875 550.925781 635.09375 543.722656 628.429688 537.59375 C 625.410156 534.816406 619.644531 533.707031 615.851562 535.722656 C 611.5625 538 607.933594 540.789062 604.960938 544.582031 C 599.683594 551.3125 593.796875 557.636719 589.148438 564.773438 C 581.382812 576.691406 574.191406 589.003906 567.125 601.363281 C 559.023438 615.535156 551.40625 629.980469 543.410156 644.214844 C 538.945312 652.148438 534.265625 659.972656 529.449219 667.699219 C 523.03125 677.996094 516.316406 688.109375 509.9375 698.425781 C 509.308594 699.445312 509.574219 701.792969 510.363281 702.753906 C 512.15625 704.9375 514.332031 706.957031 516.710938 708.480469 C 525.550781 714.140625 534.316406 719.972656 543.535156 724.960938 C 550.328125 728.640625 556.933594 732.40625 562.207031 738.0625 C 568.125 744.410156 574.082031 750.769531 579.433594 757.585938 C 584.839844 764.464844 589.644531 771.828125 594.457031 779.148438 C 596.402344 782.105469 597.316406 784.652344 602.257812 783.761719 C 609.40625 782.476562 616.882812 783.046875 624.214844 782.746094 C 627.898438 782.597656 631.566406 782.183594 635.25 782.058594 C 638.824219 781.9375 642.40625 782.105469 645.976562 782 C 647.839844 781.945312 649.746094 781.785156 651.535156 781.304688 C 659.203125 779.234375 665.25 774.726562 671.078125 769.347656 C 679.964844 761.148438 689.734375 753.914062 698.046875 744.324219 M 306.585938 706.984375 C 308.222656 708.867188 309.898438 710.722656 311.496094 712.644531 C 313.597656 715.171875 315.222656 718.328125 317.789062 720.207031 C 325.953125 726.1875 334.390625 731.804688 342.851562 737.371094 C 351.875 743.304688 360.320312 750.085938 367.507812 757.988281 C 377.355469 768.8125 388.660156 774.75 403.347656 772.449219 C 417.167969 770.28125 427.558594 762.628906 434.714844 750.734375 C 437.503906 746.101562 439.878906 741.171875 441.945312 736.171875 C 444.152344 730.839844 447.550781 725.886719 447.15625 719.621094 C 446.941406 716.210938 447.664062 712.753906 447.765625 709.3125 C 447.820312 707.394531 447.898438 705.296875 447.222656 703.570312 C 443.238281 693.390625 435.316406 685.972656 428.703125 677.636719 C 427.304688 675.871094 426.035156 673.859375 424.269531 672.558594 C 417.953125 667.910156 411.328125 663.671875 405.058594 658.960938 C 401.734375 656.464844 398.617188 653.554688 395.910156 650.398438 C 389.402344 642.800781 383.269531 634.882812 376.816406 627.238281 C 374.382812 624.359375 371.425781 624.457031 368.859375 627.128906 C 366.457031 629.628906 364.304688 632.378906 361.839844 634.8125 C 350.34375 646.164062 338.78125 657.441406 327.242188 668.746094 C 326.890625 669.085938 326.566406 669.453125 326.203125 669.777344 C 317.125 677.890625 308.0625 686.019531 298.941406 694.089844 C 297.601562 695.277344 297.800781 695.921875 298.921875 697.21875 C 301.507812 700.21875 303.804688 703.46875 306.585938 706.984375 M 1031.707031 525.40625 C 1028.257812 521.707031 1024.8125 518.007812 1021.355469 514.320312 C 1018.71875 511.503906 1015.929688 508.816406 1013.441406 505.871094 C 1008.664062 500.210938 1004.042969 494.414062 999.378906 488.652344 C 997.503906 486.335938 995.847656 486.445312 993.785156 488.609375 C 985.757812 497.03125 977.453125 505.203125 969.558594 513.746094 C 964.109375 519.644531 959.15625 526 953.996094 532.164062 C 953.71875 532.5 953.605469 532.972656 953.414062 533.382812 C 953.949219 533.527344 954.542969 533.910156 955.003906 533.789062 C 959.507812 532.609375 963.996094 531.382812 968.46875 530.097656 C 983.054688 525.914062 989.15625 530.128906 998.757812 540.328125 C 1000.523438 542.199219 1001.9375 544.394531 1003.628906 546.34375 C 1008.941406 552.453125 1014.441406 558.402344 1019.617188 564.628906 C 1024.609375 570.632812 1030.585938 574.503906 1038.453125 575.621094 C 1045.746094 576.660156 1052.96875 578.203125 1060.214844 579.5625 C 1066.453125 580.734375 1071.496094 584.328125 1076.523438 587.863281 C 1080.515625 590.671875 1084.507812 593.523438 1088.21875 596.683594 C 1092.402344 600.246094 1096.1875 604.269531 1100.308594 607.90625 C 1104.460938 611.574219 1108.945312 614.867188 1113.042969 618.589844 C 1116.785156 621.980469 1120.625 624.859375 1125.660156 626.207031 C 1127.976562 626.828125 1130.261719 628.496094 1131.957031 630.269531 C 1134.433594 632.855469 1136.25 636.0625 1138.597656 638.792969 C 1139.484375 639.820312 1141.070312 640.246094 1142.339844 640.945312 C 1141.953125 639.679688 1141.800781 638.277344 1141.136719 637.179688 C 1139.941406 635.203125 1138.320312 633.484375 1137.097656 631.523438 C 1133.234375 625.328125 1129.632812 618.964844 1125.632812 612.863281 C 1120.074219 604.390625 1114.558594 595.867188 1108.460938 587.789062 C 1100.609375 577.390625 1092.21875 567.402344 1084.011719 557.273438 C 1082.546875 555.464844 1081.042969 553.601562 1079.230469 552.179688 C 1075.503906 549.253906 1071.542969 546.625 1067.703125 543.84375 C 1064.699219 541.667969 1061.765625 538.390625 1057.710938 540.519531 C 1051.5 543.78125 1046.929688 541.015625 1042.726562 537.0625 C 1038.960938 533.523438 1035.609375 529.550781 1031.707031 525.40625 M 1354.390625 743.59375 C 1354.144531 743.328125 1353.820312 743.101562 1353.671875 742.792969 C 1347.558594 729.957031 1341.59375 717.050781 1335.292969 704.308594 C 1333.125 699.925781 1330.191406 695.914062 1327.480469 691.8125 C 1325.90625 689.429688 1324.136719 688.984375 1322.125 691.609375 C 1320.875 693.238281 1319.289062 694.628906 1317.757812 696.027344 C 1309.808594 703.292969 1301.738281 710.433594 1293.921875 717.84375 C 1292.171875 719.503906 1290.140625 722.136719 1290.257812 724.210938 C 1290.449219 727.695312 1291.949219 731.234375 1293.453125 734.5 C 1295.863281 739.730469 1299.476562 744.523438 1301.167969 749.941406 C 1302.613281 754.570312 1305.125 754.796875 1308.976562 755.039062 C 1317.945312 755.601562 1326.945312 753.503906 1335.9375 756.945312 C 1344.066406 760.054688 1352.816406 761.542969 1361.300781 763.699219 C 1362.015625 763.882812 1362.828125 763.691406 1363.589844 763.671875 C 1363.453125 762.839844 1363.511719 761.90625 1363.148438 761.1875 C 1360.273438 755.542969 1357.320312 749.941406 1354.390625 743.59375 Z M 1354.390625 743.59375 " fill-opacity="1" fill-rule="nonzero"/></svg>