<?xml version="1.0" encoding="UTF-8"?>
<!-- Generated by Pixelmator Pro 2.4.3 -->
<svg width="375" height="124" viewBox="0 0 375 124" xmlns="http://www.w3.org/2000/svg" xmlns:xlink="http://www.w3.org/1999/xlink">
    <path id="Path" fill="#000000" fill-rule="evenodd" stroke="none" d="M -1.953125 117.965462 L 20.898438 117.576141 C 20.898438 117.576141 22.773746 117.129501 24.21875 116.213501 C 25.663754 115.297501 41.992188 100.640503 41.992188 100.640503 L 50.976563 107.648354 L 52.929688 105.117737 L 69.335938 93.243332 L 73.046875 92.854004 L 77.34375 94.02198 L 97.070313 75.139717 L 106.445313 84.872841 L 111.328125 88.37677 C 111.328125 88.37677 117.249298 94.629585 117.96875 98.109894 C 118.688202 101.590195 117.96875 101.419151 117.96875 101.419151 L 118.75 98.499214 L 128.125 90.907379 L 129.492188 91.491364 L 131.445313 95.773941 L 132.421875 95.189957 L 152.539063 60.929356 L 159.570313 52.364204 L 161.71875 51.78022 L 164.648438 53.14286 L 170.3125 58.398743 L 186.328125 39.321823 L 195.3125 19.855576 L 200 7.202515 L 202.734375 2.530609 L 205.46875 0.778648 L 207.226563 1.167976 L 208.789063 3.89325 L 211.523438 10.317108 C 211.523438 10.317108 218.724365 21.008301 220.3125 21.023544 C 221.900635 21.038788 226.367188 26.279434 226.367188 26.279434 L 247.65625 52.753532 L 248.046875 51.585556 L 259.375 39.516487 C 259.375 39.516487 260.789337 39.518768 261.328125 40.87912 C 261.866913 42.239479 273.632813 54.310829 273.632813 54.310829 L 276.5625 53.14286 L 282.8125 58.009422 L 290.820313 68.32653 L 298.242188 80.395599 L 299.023438 80.200943 L 307.03125 68.131866 L 308.203125 68.715851 L 317.382813 80.590271 L 325 88.182098 L 335.546875 101.419151 L 337.109375 99.277863 L 345.703125 92.075356 L 355.664063 112.320251 L 355.664063 118.74411 L 377.148438 121.664047 L 376.367188 130.034531 L -2.929688 125.751961 L -1.953125 117.965462 Z"/>
    <path id="path1" fill="#FFFFFF" stroke="none" d="M 285.298645 60.123333 C 286.902893 62.124706 288.614929 63.977039 289.983093 66.054459 C 292.821228 70.36644 295.476257 74.800064 298.215759 79.176941 C 298.314392 79.335098 298.501587 79.467911 298.677551 79.533813 C 298.738586 79.557137 298.916626 79.362473 298.994934 79.23777 C 300.056946 77.555763 301.090515 75.856522 302.170837 74.185669 C 303.370178 72.332321 304.604065 70.501274 305.831909 68.666183 C 306.766785 67.271095 307.610046 67.386673 308.737183 68.623596 C 311.056519 71.169418 312.642395 74.310371 315.30658 76.568253 C 316.184509 77.311417 317.028809 78.097168 317.838562 78.91333 C 318.237305 79.314819 318.488586 79.857239 318.864929 80.285095 C 321.27887 83.030647 323.554504 85.921173 326.174927 88.455849 C 329.392517 91.569427 331.843079 95.199081 334.22345 98.915916 C 334.545898 99.418793 334.886658 99.9095 335.218323 100.405281 C 335.595703 100.000748 336.017883 99.626633 336.344421 99.183578 C 337.85199 97.142662 339.618958 95.416046 341.808044 94.070648 C 342.853821 93.427849 343.637085 92.373428 344.587219 91.561325 C 345.661438 90.644783 346.321594 90.940834 347.208679 92.128075 C 348.660278 94.07267 348.794556 96.531296 350.003052 98.574242 C 351.027405 100.306946 351.710999 102.235321 352.603149 104.049118 C 353.80658 106.499641 355.117798 108.899467 356.262207 111.377357 C 356.531799 111.961342 356.559265 112.903221 356.259155 113.434494 C 355.946838 113.987045 355.978394 114.364204 356.137085 114.849846 C 356.629456 116.356453 357.374084 116.681908 358.913147 117.037773 C 361.469543 117.627846 364.161194 117.069206 366.649353 118.117546 C 368.270874 118.800888 369.943237 119.362572 371.600342 119.95974 C 372.263611 120.200027 372.946167 120.388603 373.620605 120.601517 C 373.816956 120.664383 374.052917 120.679588 374.199402 120.802261 C 374.492371 121.045593 374.736511 121.34874 375 121.626534 C 374.638855 121.66507 374.273682 121.758339 373.916626 121.731979 C 372.538269 121.629578 371.16394 121.472427 369.78656 121.366989 C 368.639099 121.278786 367.480469 121.112503 366.342163 121.19767 C 364.154053 121.361916 361.979187 121.686356 359.796143 121.928673 C 358.516418 122.071625 357.23468 122.191261 355.952942 122.310898 C 353.200256 122.56842 350.447571 122.830002 347.693909 123.068253 C 345.297241 123.2761 342.897522 123.453529 340.499878 123.64109 C 339.637268 123.709023 338.768494 123.864143 337.911987 123.814461 C 335.28949 123.661369 333.199036 122.517723 331.531799 120.450455 C 330.388367 119.032051 329.374207 117.361198 327.380371 116.927261 C 326.580811 116.753891 325.752747 116.706238 324.936951 116.612968 C 323.804749 116.483185 322.700989 116.356453 321.694946 115.68528 C 321.002197 115.222954 321.129333 114.870132 321.612549 114.470665 C 324.111938 112.397308 326.66626 110.38681 329.119873 108.261742 C 330.067932 107.440506 330.823792 106.391159 331.625366 105.412773 C 332.550049 104.28434 333.44928 103.134613 334.307861 101.956497 C 334.46759 101.735481 334.528625 101.240715 334.390259 101.037933 C 333.124817 99.175468 331.977356 97.190308 330.454529 95.556969 C 328.920471 93.912483 327.706909 92.080421 326.392639 90.296021 C 325.732422 89.400772 324.89624 88.634285 324.123108 87.824211 C 321.478271 85.05027 318.730652 82.366562 316.204834 79.489212 C 314.064514 77.048828 312.188721 74.379318 310.174561 71.828423 C 309.468567 70.935211 308.71991 70.072411 307.949829 69.233932 C 307.345581 68.575943 306.922424 68.619537 306.43512 69.362701 C 305.65387 70.555016 304.909241 71.772659 304.139221 72.973083 C 302.661133 75.276588 301.177979 77.578064 299.69281 79.877518 C 299.142456 80.729164 298.374451 81.502747 298.062134 82.43145 C 297.467041 84.192535 297.206604 86.064133 296.660339 87.844482 C 296.206665 89.322708 295.451843 90.709671 294.995117 92.186874 C 294.558716 93.603256 294.394958 95.100731 294.001282 96.532318 C 293.509949 98.315704 292.888367 100.063614 292.366516 101.838898 C 292.269897 102.168404 292.297363 102.582062 292.401123 102.914604 C 292.921936 104.587486 293.377686 106.256317 294.718445 107.578392 C 295.853699 108.697708 295.946228 110.304688 296.126282 111.830551 C 296.277893 113.110054 296.680725 114.370293 296.735657 115.648781 C 296.815979 117.529495 296.78241 119.428474 296.596252 121.299057 C 296.528137 121.974297 295.837402 122.498466 294.969666 122.507591 C 290.644348 122.558281 286.320007 122.676903 281.995667 122.670822 C 279.983521 122.667778 277.926636 122.657639 275.973511 122.253105 C 273.823059 121.808022 271.686829 121.453163 269.513977 121.581924 C 267.798889 121.683319 266.103088 122.075684 264.393127 122.296707 C 263.117493 122.462975 261.836731 122.630264 260.552979 122.675888 C 258.7453 122.739761 256.93158 122.736717 255.123901 122.681969 C 252.22168 122.593765 249.258423 122.76004 246.44165 122.206474 C 244.345093 121.793823 242.453003 122.548141 240.444946 122.343346 C 237.392166 122.032082 234.303787 122.05439 231.258133 121.701569 C 229.044601 121.445053 226.894119 120.672485 224.682617 120.384552 C 222.249344 120.067207 219.925949 119.220627 217.416382 119.220627 C 215.218094 119.220627 212.968948 119.148643 210.847977 118.341606 C 210.626221 118.257454 210.346481 118.321327 210.094193 118.321327 C 207.521561 118.321327 204.946899 118.389259 202.378342 118.290916 C 201.16069 118.245293 199.890137 118.051643 198.761993 117.616692 C 197.265625 117.040817 196.806854 115.702515 197.284943 114.169548 C 197.73764 112.718704 198.690796 111.640961 199.824005 110.668663 C 200.865677 109.775444 201.790359 108.746368 202.851364 107.879517 C 204.877731 106.224884 206.980392 104.662514 209.016922 103.019035 C 209.750366 102.427948 210.337326 102.749344 210.770676 103.265404 C 213.071701 106.006905 215.36763 108.754478 217.574051 111.572021 C 218.908691 113.277344 220.695999 113.919121 222.707108 114.350014 C 226.193237 115.097229 229.644775 116.003632 233.127853 116.768089 C 234.28447 117.022568 235.493973 117.033714 236.675003 117.187828 C 237.267044 117.264877 237.846878 117.438248 238.438919 117.51429 C 238.687134 117.545723 238.953659 117.438248 239.211014 117.393639 C 239.13269 117.17363 239.108276 116.908005 238.966873 116.740715 C 237.818405 115.378075 237.532547 113.717361 237.213135 112.041443 C 236.999512 110.917053 236.754349 109.751114 236.250809 108.740288 C 234.849045 105.929848 233.204147 103.25222 231.97937 100.335327 C 231.287643 98.68779 230.11882 97.200455 228.982544 95.786102 C 226.882935 93.171341 224.517822 90.759354 222.52095 88.073624 C 221.370438 86.525452 220.631912 84.628494 220.663452 82.589615 C 220.681763 81.442932 220.859787 80.296249 220.825195 79.152603 C 220.786545 77.84066 220.589188 76.533783 220.46814 75.223877 C 220.4478 75.00386 220.465088 74.780807 220.465088 74.558777 C 220.465088 72.120422 220.419312 69.680038 220.481369 67.243721 C 220.522049 65.646881 220.701096 64.052071 220.849609 62.459282 C 221.106979 59.72184 220.112106 57.264229 219.17012 54.790398 C 218.639114 53.394302 218.102005 51.997185 217.648315 50.575745 C 217.565918 50.318222 217.786667 49.80014 218.023682 49.6511 C 218.254593 49.506111 218.80188 49.548691 219.013474 49.733223 C 221.276855 51.714317 223.182175 53.997543 224.873856 56.492668 C 226.114914 58.322701 227.604172 59.984428 228.977463 61.725246 C 229.956055 62.966221 231.035355 64.14534 231.872559 65.474518 C 233.271286 67.692871 235.00264 69.487411 237.130737 71.058899 C 239.003494 72.442825 240.725708 74.154236 242.129517 76.009613 C 243.595383 77.945091 244.65332 80.198914 245.788574 82.366562 C 246.507767 83.737305 246.935013 85.263184 247.688797 86.610611 C 248.503616 88.066528 249.454758 89.469711 250.512695 90.760361 C 251.854446 92.397766 253.361008 93.902344 254.802444 95.458633 C 256.692505 97.499542 258.152283 99.763504 259.202087 102.384354 C 260.28949 105.098473 261.685181 107.717293 263.210022 110.218506 C 263.995361 111.506119 265.341187 112.461182 266.470337 113.528786 C 266.645325 113.694038 267.016602 113.653488 267.297363 113.708237 C 267.247498 113.45578 267.288208 113.099915 267.134583 112.966087 C 266.063416 112.032318 266.30658 110.681847 266.032898 109.519951 C 265.437805 106.994408 265.137756 104.392822 264.433777 101.902771 C 263.88855 99.974396 262.896729 98.173767 262.137878 96.301155 C 261.906921 95.731354 261.706543 95.124054 261.639404 94.516739 C 261.416626 92.517403 261.457336 90.502846 260.552979 88.59272 C 260.05658 87.544388 260.093201 86.256775 259.695435 85.147598 C 258.815491 82.696075 257.803345 80.292191 256.868469 77.859924 C 256.699646 77.420914 256.698608 76.918037 256.526672 76.480049 C 255.962112 75.035294 255.352783 73.607758 254.763794 72.173141 C 254.063919 70.466812 253.391525 68.749313 252.66011 67.056152 C 252.010086 65.55056 251.241043 64.09465 250.620529 62.577904 C 249.56665 60.0037 248.698929 57.349388 247.540283 54.82486 C 246.66951 52.92791 245.644119 51.044151 244.365433 49.404732 C 242.756149 47.341515 240.947464 45.387787 238.987228 43.653061 C 236.667892 41.599983 235.182693 38.951759 233.317062 36.577286 C 233.147171 36.360313 233.131912 36.024727 233.040359 35.744896 C 232.800293 35.00782 232.478836 34.4076 231.808472 33.863159 C 230.986526 33.197044 230.470779 32.162903 229.799393 31.30619 C 228.465775 29.604912 227.243042 27.791107 225.738525 26.255104 C 224.06514 24.54673 222.044876 23.180046 220.327759 21.508171 C 218.195602 19.434822 216.051224 17.332054 214.226273 14.997124 C 212.554932 12.858879 211.190796 10.454994 209.902954 8.055168 C 209.008789 6.390404 208.554077 4.496498 207.755539 2.771912 C 206.734207 0.564728 204.955032 0.53228 203.490189 2.490059 C 201.578781 5.046013 200.172928 7.886871 198.783356 10.720634 C 197.924805 12.471573 197.476196 14.421242 196.836334 16.279663 C 195.347076 20.603806 193.7388 24.873207 191.668701 28.969223 C 190.534454 31.211899 189.79187 33.657349 188.606781 35.869606 C 187.056488 38.763176 185.298676 41.549286 183.163452 44.079895 C 180.773926 46.911629 178.466797 49.812302 176.072174 52.639984 C 174.784332 54.15976 173.387665 55.589317 172.039795 57.059433 C 171.99707 57.106064 171.947235 57.146614 171.906525 57.195282 C 171.591187 57.570419 171.092743 57.918175 171.02356 58.334869 C 170.973724 58.638023 171.514893 59.019234 171.753937 59.390305 C 173.220825 61.665424 174.716187 63.923302 176.109833 66.24202 C 176.45874 66.823975 176.555389 67.599586 176.623535 68.300171 C 176.872772 70.875397 177.071136 73.465828 178.048706 75.887955 C 178.453583 76.890663 179.110718 77.802139 179.713959 78.7136 C 181.018066 80.682526 182.315063 82.660583 183.705658 84.567665 C 184.626251 85.829926 185.640472 87.040489 186.727905 88.162842 C 188.677979 90.175369 189.837646 92.576202 190.553802 95.237602 C 190.713501 95.831726 190.852875 96.451202 191.135651 96.989563 C 191.892487 98.437363 191.253662 99.769592 190.656525 100.952774 C 189.492798 103.261345 187.976074 105.350929 185.864258 106.946762 C 184.549957 107.940346 183.181763 108.898453 182.028198 110.061356 C 180.982452 111.115776 179.80957 112.134712 179.418945 113.719391 C 179.126984 114.909668 179.549164 116.041145 180.580658 116.629181 C 181.041473 116.891777 181.768799 117.451431 181.704712 117.708954 C 181.565338 118.268608 181.091309 118.918503 180.575562 119.171967 C 179.796356 119.556221 178.874725 119.7519 177.997833 119.818817 C 175.51474 120.009422 173.010254 119.979004 170.540375 120.266937 C 169.13858 120.430176 167.831421 120.129059 166.483551 120.080391 C 164.573151 120.011444 162.649536 120.260857 160.734039 120.41497 C 159.736115 120.495056 158.746338 120.679588 157.74942 120.788071 C 155.892944 120.990837 154.035431 121.304123 152.174896 121.329475 C 149.634796 121.36496 147.781372 119.954674 146.131378 118.138832 C 144.930023 116.818779 144.777435 115.207748 144.414276 113.608871 C 144.070435 112.091118 143.603516 110.593636 143.085724 109.124542 C 142.590332 107.719322 142.009491 106.336403 141.36557 104.99202 C 141.05835 104.351257 140.581268 103.756119 140.06958 103.25222 C 137.780762 100.993332 135.107422 99.205887 132.585663 97.229851 C 131.181854 96.130821 130.237823 94.58873 129.555267 92.896584 C 128.952026 91.400116 128.087372 91.08075 126.639809 92.278122 C 124.527992 94.022995 122.452797 95.811455 120.357262 97.576591 C 120.199585 97.709412 120.007324 97.801674 119.832359 97.91523 C 118.658447 98.680695 118.457031 99.884155 118.746948 101.054161 C 119.205727 102.901428 119.9412 104.678734 120.474243 106.509781 C 120.904541 107.986984 121.129356 109.527046 121.594238 110.992088 C 121.990967 112.241173 122.58606 113.430435 123.123169 114.633896 C 123.3256 115.089127 123.63485 115.497711 123.851524 115.947868 C 124.372353 117.028648 125.118004 117.638992 126.400757 117.809326 C 127.189125 117.914772 127.983604 118.49572 128.624481 119.040161 C 129.289764 119.603867 129.122925 120.48391 128.337616 120.759682 C 127.223717 121.149002 126.093544 121.345695 124.862671 121.011124 C 123.248291 120.573128 121.575928 120.353119 119.930016 120.029694 C 118.816124 119.810699 117.714439 119.441658 116.592407 119.373726 C 114.534508 119.249016 112.45829 119.187172 110.401405 119.301743 C 108.244835 119.421371 106.106567 119.871529 103.949989 120.006378 C 101.677452 120.147308 99.967453 118.992508 98.711136 117.183769 C 96.740723 114.345955 94.755051 111.528419 92.459106 108.930893 C 90.639236 106.871727 88.28125 105.608452 85.818481 104.720306 C 83.858231 104.013641 82.748413 102.593208 81.57959 101.172783 C 79.970291 99.217033 78.567505 97.093994 77.011108 95.092621 C 76.011154 93.808052 72.709152 93.148026 70.876053 93.712753 C 68.303421 94.504578 66.188553 96.108521 63.997395 97.560379 C 61.272175 99.365051 58.548992 101.183929 55.939739 103.146782 C 54.326374 104.360382 52.918499 105.847725 51.446533 107.240776 C 51.359051 107.323914 51.437378 107.748726 51.570637 107.868362 C 52.275593 108.504059 53.082275 109.035324 53.743488 109.710556 C 54.716999 110.703133 55.610149 111.776817 56.516521 112.834282 C 57.495117 113.975899 58.463543 115.127647 59.411621 116.294609 C 60.080975 117.117874 60.742188 117.951271 61.344402 118.823196 C 61.706543 119.346352 61.45528 119.74176 60.851032 119.829964 C 60.446167 119.889778 59.993488 119.94352 59.619141 119.824898 C 57.345581 119.10302 55.018108 119.594742 52.721149 119.470039 C 50.780231 119.364601 48.836266 119.341286 46.893311 119.269295 C 45.522057 119.21759 44.143677 119.214546 42.782593 119.062462 C 41.227211 118.889091 39.680992 118.609268 38.146973 118.295982 C 37.783813 118.22197 37.485756 117.829605 37.157188 117.583237 C 37.417603 117.285156 37.633263 116.925232 37.945557 116.697113 C 39.919029 115.258438 42.276001 114.864044 44.580078 114.326691 C 46.228027 113.943451 47.868858 113.530807 49.511719 113.125259 C 50.69173 112.834282 51.873779 112.549385 53.042603 112.21582 C 53.142292 112.187439 53.260296 111.720039 53.174847 111.61866 C 51.987713 110.198227 50.76701 108.805176 49.554443 107.406036 C 48.745728 106.473282 48.012291 105.459412 47.109985 104.628044 C 45.998131 103.602005 44.761147 102.706764 43.548584 101.794281 C 42.337036 100.882813 41.297401 101.493164 40.371704 102.30426 C 38.823448 103.660812 37.280273 105.027512 35.816444 106.472267 C 33.708702 108.553734 31.734213 110.772079 29.591879 112.816032 C 27.165731 115.129677 24.39677 116.936386 21.068317 117.733284 C 20.9198 117.768776 20.756023 117.745453 20.599365 117.751534 C 18.973797 117.8144 17.349243 117.887398 15.723674 117.939102 C 13.463338 118.011086 11.203003 118.072937 8.942667 118.129707 C 6.259155 118.198654 3.575643 118.271652 0.891113 118.302063 C 0.595093 118.305107 0.297038 118.042519 0 117.902603 C 0.296021 117.725174 0.581869 117.418991 0.891113 117.393639 C 2.257284 117.278061 3.630574 117.214188 5.002849 117.193909 C 5.673218 117.183769 6.349691 117.381477 7.019043 117.358162 C 9.825644 117.261841 12.630208 117.121925 15.435791 116.989105 C 16.489666 116.938416 17.546589 116.77417 18.595379 116.818779 C 21.308392 116.934357 23.731487 116.177002 25.82601 114.490936 C 27.410889 113.2155 28.963217 111.884285 30.42399 110.46994 C 32.36084 108.593277 34.174599 106.589874 36.080933 104.680763 C 37.452187 103.305962 38.890587 101.99604 40.291344 100.649628 C 40.416466 100.529991 40.455116 100.293762 40.593468 100.216705 C 40.936279 100.024071 41.412354 99.665161 41.659546 99.772629 C 44.353233 100.947708 46.786499 102.492836 48.602295 104.880493 C 49.076332 105.504021 49.682617 106.032242 50.264484 106.5625 C 50.356037 106.645638 50.73344 106.582779 50.831097 106.465164 C 51.908367 105.176544 52.872723 103.7845 54.037476 102.583069 C 54.96114 101.63105 56.117756 100.902084 57.173664 100.078819 C 58.15633 99.31234 59.113567 98.508339 60.133869 97.796608 C 62.294514 96.288986 64.440918 94.751961 66.691086 93.387299 C 67.797852 92.715103 69.018555 92.106781 70.453903 92.266975 C 71.363327 92.36937 72.29512 92.313614 73.214722 92.279144 C 74.150589 92.242645 75.024414 92.309555 75.816849 92.911789 C 76.54216 93.462326 77.044678 93.234207 77.675369 92.520447 C 78.627518 91.440674 79.828903 90.577866 80.928543 89.627884 C 81.110641 89.470726 81.328323 89.352104 81.508377 89.192932 C 82.694504 88.144592 83.887741 87.104362 85.050461 86.029663 C 85.4543 85.656555 85.749313 85.167877 86.141968 84.779572 C 86.602783 84.324341 87.13887 83.945152 87.60173 83.491959 C 89.024857 82.096878 90.439865 80.69368 91.834518 79.271225 C 93.03894 78.042419 94.193527 76.763931 95.40303 75.541214 C 96.363327 74.571945 97.488403 74.482727 98.442581 75.431709 C 99.736526 76.71933 100.915527 78.123528 102.132164 79.48819 C 102.892052 80.340851 103.627525 81.213791 104.377235 82.075584 C 106.001793 83.942108 108.002724 85.313873 110.050453 86.690704 C 111.536659 87.689362 112.778725 89.129059 113.918053 90.541367 C 115.246582 92.190933 116.363525 94.012856 117.533363 95.785095 C 117.869057 96.294052 118.040977 96.90744 118.349205 97.437698 C 118.431602 97.578629 118.851723 97.710426 118.931068 97.639458 C 120.025635 96.662086 121.057129 95.614761 122.165932 94.654633 C 123.577881 93.430893 125.014244 92.229462 126.50045 91.09697 C 127.934776 90.004028 129.3508 90.459244 130.144257 92.006409 C 130.545044 92.788101 130.891937 93.599197 131.298828 94.377846 C 131.41275 94.595825 131.482941 95.140274 131.90918 94.456924 C 133.813477 91.401138 135.835785 88.418335 137.732941 85.358482 C 138.850922 83.556839 139.811188 81.65889 140.848785 79.807556 C 142.867035 76.207321 144.83847 72.57869 146.925873 69.017982 C 148.88916 65.668167 150.87381 62.3214 153.047699 59.10643 C 154.47998 56.988449 156.189972 55.037773 157.925415 53.147934 C 158.692413 52.313507 159.810394 51.786301 160.810333 51.18914 C 161.09314 51.020828 161.594635 50.950874 161.87439 51.086731 C 163.901764 52.069168 165.849823 53.195572 167.488617 54.76606 C 168.207794 55.454475 168.822235 56.250366 169.524139 56.957024 C 170.019531 57.454842 170.461029 57.628212 170.981842 56.832321 C 171.503693 56.035423 172.269684 55.399727 172.904449 54.67379 C 174.976593 52.302368 177.100616 49.971474 179.088348 47.53009 C 181.25 44.873756 183.36792 42.171799 185.345459 39.378601 C 187.254852 36.680702 188.688141 33.714119 189.816284 30.588371 C 190.41037 28.942871 191.385895 27.438286 192.057281 25.815079 C 193.319702 22.75827 194.630951 19.707542 195.657349 16.568611 C 196.974701 12.539513 198.447662 8.592522 200.541183 4.903061 C 201.428223 3.338669 202.506516 1.917221 204.00798 0.827316 C 205.930588 -0.567772 207.668045 0.029404 208.520508 1.9963 C 209.173584 3.49987 209.744263 5.037903 210.367844 6.554649 C 211.249802 8.697968 212.248734 10.767265 213.769531 12.565865 C 214.862061 13.858543 215.750122 15.323586 216.865036 16.592941 C 218.058273 17.952538 219.311523 19.294907 220.71431 20.428406 C 223.999023 23.083725 227.218628 25.745125 229.664108 29.276421 C 231.297806 31.635696 233.331299 33.717163 235.142014 35.957809 C 236.82251 38.038269 238.438919 40.169418 240.092972 42.271164 C 241.243484 43.731133 242.426559 45.165749 243.564865 46.634842 C 244.713333 48.117119 245.823166 49.627777 246.952316 51.125267 C 247.198486 51.450714 247.417191 51.754875 247.820023 51.237808 C 250.214645 48.162743 252.571609 45.057274 255.485031 42.424255 C 256.680298 41.344482 257.768738 40.149139 258.921326 39.021713 C 259.644592 38.314041 260.262024 38.421509 260.869324 39.210289 C 262.038147 40.727043 263.215149 42.24176 264.461243 43.695641 C 266.674805 46.277962 268.919861 48.835953 271.203613 51.357437 C 271.813965 52.031662 272.554504 52.637955 273.34491 53.075943 C 273.748779 53.301018 274.442566 53.215858 274.928772 53.047554 C 277.52179 52.153328 278.896057 52.545692 280.562317 54.7985 C 281.40564 55.939102 282.427979 56.949928 283.376038 58.012459 C 283.994568 58.705948 284.626282 59.388275 285.298645 60.123333 M 181.783051 106.824081 C 182.457489 106.025154 183.183807 105.264755 183.794159 104.420197 C 185.005707 102.742249 184.60083 100.922356 183.118683 99.696594 C 182.148224 98.895638 181.15744 98.11496 180.229706 97.26635 C 179.840088 96.90947 179.671234 96.294052 179.260254 95.979752 C 177.683502 94.771225 176.130157 93.498825 174.417114 92.5103 C 172.047943 91.141586 170.094818 89.351089 168.463135 87.22197 C 167.5242 85.996208 166.658539 84.657898 166.90979 82.928238 C 167.213959 80.825485 167.386871 78.702454 167.709351 76.602722 C 167.902618 75.346542 168.288177 74.120781 168.561798 72.87677 C 168.856812 71.53846 169.369507 70.188995 169.341034 68.853737 C 169.296265 66.674942 168.949371 64.49411 168.612671 62.332546 C 168.422455 61.114895 168.13559 59.87291 167.644257 58.749535 C 166.715485 56.627525 165.389008 54.75795 163.653564 53.167191 C 162.867218 52.446327 161.365753 52.158386 160.378021 52.681541 C 159.261078 53.272636 158.31604 53.996536 157.541901 54.980995 C 156.167603 56.727898 154.634613 58.369339 153.424072 60.221672 C 151.401764 63.314983 149.529022 66.510696 147.688812 69.718575 C 145.57901 73.396881 143.595367 77.146164 141.513062 80.840698 C 140.350342 82.899857 139.131683 84.930634 137.877411 86.936066 C 136.206055 89.608612 134.457397 92.233521 132.796234 94.91114 C 132.632446 95.175758 132.70163 95.785095 132.907104 96.0345 C 133.374023 96.601257 133.940643 97.125427 134.56015 97.520836 C 136.862183 98.989929 139.144897 100.503632 141.545624 101.79834 C 143.314606 102.753403 145.03479 103.730774 146.408081 105.198845 C 147.949219 106.846382 149.500519 108.496956 150.894165 110.266151 C 152.302032 112.051575 153.553253 113.962715 154.806519 115.862701 C 155.31311 116.630203 155.551147 117.291245 156.837982 117.060081 C 158.699554 116.726517 160.646576 116.874542 162.555939 116.796471 C 163.515228 116.75795 164.470428 116.650475 165.429688 116.618034 C 166.360474 116.586601 167.293304 116.630203 168.223053 116.602829 C 168.708282 116.588631 169.204712 116.547058 169.670624 116.422356 C 171.66748 115.88501 173.242188 114.715004 174.759918 113.318909 C 177.074188 111.190804 179.618317 109.313126 181.783051 106.824081 M 79.840088 97.132523 C 80.266312 97.621208 80.702713 98.102791 81.118774 98.601616 C 81.666061 99.257591 82.089233 100.07679 82.757568 100.564461 C 84.883621 102.116699 87.080887 103.574631 89.284256 105.019394 C 91.634109 106.559456 93.83342 108.319527 95.705154 110.370583 C 98.269653 113.180008 101.213585 114.721092 105.038452 114.123917 C 108.637489 113.561226 111.343384 111.575058 113.206993 108.487831 C 113.933311 107.285385 114.551796 106.00589 115.089928 104.708138 C 115.664673 103.324211 116.549683 102.03862 116.446938 100.412384 C 116.390991 99.527275 116.579185 98.630005 116.605629 97.736786 C 116.619873 97.238976 116.640221 96.694534 116.464233 96.246407 C 115.426636 93.604263 113.363647 91.678925 111.641441 89.515343 C 111.27726 89.057068 110.946655 88.534927 110.486855 88.197311 C 108.841957 86.990814 107.116699 85.890762 105.484009 84.668037 C 104.618324 84.020172 103.806557 83.264847 103.101601 82.445648 C 101.40686 80.473671 99.809769 78.418564 98.129272 76.434425 C 97.495529 75.68721 96.725464 75.712547 96.057129 76.406036 C 95.431519 77.054909 94.871017 77.768677 94.229126 78.400314 C 91.235352 81.346611 88.224289 84.273651 85.219315 87.207779 C 85.127762 87.295982 85.043335 87.391289 84.94873 87.475433 C 82.584641 89.581238 80.224609 91.691101 77.849319 93.785751 C 77.500412 94.093964 77.552292 94.261246 77.844238 94.597855 C 78.517654 95.376511 79.115799 96.220039 79.840088 97.132523 M 268.673706 50.003922 C 267.775452 49.043785 266.878235 48.083664 265.977966 47.126572 C 265.291321 46.395576 264.565002 45.698029 263.917053 44.933578 C 262.672913 43.464485 261.469543 41.9599 260.254944 40.464455 C 259.766663 39.863228 259.335327 39.891609 258.798218 40.4533 C 256.707764 42.639198 254.54509 44.760201 252.489212 46.977531 C 251.070145 48.508469 249.780273 50.158035 248.436478 51.757919 C 248.364258 51.8451 248.334763 51.967789 248.284912 52.074242 C 248.424271 52.111755 248.578903 52.211121 248.698929 52.17968 C 249.871826 51.873497 251.040649 51.555138 252.205399 51.221573 C 256.003845 50.135727 257.592773 51.229691 260.093201 53.876892 C 260.552979 54.362541 260.921204 54.932327 261.361694 55.438255 C 262.745178 57.023941 264.177429 58.568062 265.52533 60.184166 C 266.825378 61.742474 268.381775 62.747223 270.430481 63.037186 C 272.329712 63.306877 274.210632 63.707348 276.097595 64.060173 C 277.722168 64.364334 279.035461 65.297096 280.344666 66.214645 C 281.384277 66.943611 282.423889 67.683746 283.39032 68.503952 C 284.479797 69.428604 285.465515 70.472893 286.538696 71.416794 C 287.620056 72.36882 288.787842 73.223511 289.854919 74.189728 C 290.829468 75.069763 291.829407 75.816986 293.140686 76.166763 C 293.743896 76.327972 294.338989 76.760895 294.780457 77.221191 C 295.425415 77.892365 295.898438 78.724747 296.509827 79.433441 C 296.740723 79.700089 297.153748 79.8106 297.484314 79.992088 C 297.383606 79.663589 297.343933 79.299614 297.171021 79.014717 C 296.859741 78.501701 296.437561 78.055595 296.119202 77.546638 C 295.113098 75.938644 294.175232 74.287064 293.133545 72.7034 C 291.685974 70.504318 290.249634 68.292068 288.661682 66.195374 C 286.617004 63.496468 284.431946 60.904015 282.294739 58.275047 C 281.913269 57.805634 281.521606 57.322014 281.049622 56.952972 C 280.079163 56.193581 279.047668 55.511253 278.047668 54.789375 C 277.265442 54.224655 276.501465 53.374016 275.445557 53.926582 C 273.828125 54.773155 272.637939 54.055336 271.543396 53.029305 C 270.562744 52.110741 269.689941 51.079643 268.673706 50.003922 M 352.705872 106.634483 C 352.641785 106.565544 352.557373 106.506737 352.518738 106.426643 C 350.926697 103.095078 349.373352 99.745255 347.732544 96.438026 C 347.167969 95.300468 346.403992 94.259224 345.698059 93.194664 C 345.288086 92.576202 344.827271 92.460617 344.303406 93.141937 C 343.977844 93.56472 343.56488 93.925659 343.166077 94.28862 C 341.096008 96.174416 338.994324 98.027771 336.958801 99.951073 C 336.503113 100.381966 335.974121 101.065308 336.004639 101.603676 C 336.054504 102.508041 336.445129 103.426605 336.836731 104.2742 C 337.464417 105.631767 338.405334 106.875786 338.845825 108.282021 C 339.222229 109.483452 339.876282 109.542252 340.879333 109.605118 C 343.214905 109.751114 345.558655 109.206665 347.900391 110.099884 C 350.017273 110.906921 352.295959 111.293205 354.505432 111.852859 C 354.691589 111.900513 354.903137 111.85083 355.101501 111.845764 C 355.065918 111.629807 355.081177 111.387497 354.986572 111.200943 C 354.237854 109.735909 353.468811 108.282021 352.705872 106.634483 Z"/>
</svg>
