<?xml version="1.0" encoding="UTF-8"?>
<!-- Generated by Pixelmator Pro 2.4.3 -->
<svg width="1200" height="124" viewBox="0 0 1200 124" xmlns="http://www.w3.org/2000/svg" xmlns:xlink="http://www.w3.org/1999/xlink">
    <path id="Path" fill="#1D1F31" fill-rule="evenodd" stroke="none" d="M -6.25 117.965462 L 66.875 117.576141 C 66.875 117.576141 72.875984 117.129501 77.5 116.213501 C 82.124016 115.297501 134.375 100.640503 134.375 100.640503 L 163.125 107.648354 L 169.375 105.117737 L 221.875 93.243332 L 233.75 92.854004 L 247.5 94.02198 L 310.625 75.139717 L 340.625 84.872841 L 356.25 88.37677 C 356.25 88.37677 375.197754 94.629585 377.5 98.109894 C 379.802246 101.590195 377.5 101.419151 377.5 101.419151 L 380 98.499214 L 410 90.907379 L 414.375 91.491364 L 420.625 95.773941 L 423.75 95.189957 L 488.125 60.929356 L 510.625 52.364204 L 517.5 51.78022 L 526.875 53.14286 L 545 58.398743 L 596.25 39.321823 L 625 19.855576 L 640 7.202515 L 648.75 2.530609 L 657.5 0.778648 L 663.125 1.167976 L 668.125 3.89325 L 676.875 10.317108 C 676.875 10.317108 699.917969 21.008301 705 21.023544 C 710.082031 21.038788 724.375 26.279434 724.375 26.279434 L 792.5 52.753532 L 793.75 51.585556 L 830 39.516487 C 830 39.516487 834.525879 39.518768 836.25 40.87912 C 837.974121 42.239479 875.625 54.310829 875.625 54.310829 L 885 53.14286 L 905 58.009422 L 930.625 68.32653 L 954.375 80.395599 L 956.875 80.200943 L 982.5 68.131866 L 986.25 68.715851 L 1015.625 80.590271 L 1040 88.182098 L 1073.75 101.419151 L 1078.75 99.277863 L 1106.25 92.075356 L 1138.125 112.320251 L 1138.125 118.74411 L 1206.875 121.664047 L 1204.375 130.034531 L -9.375 125.751961 L -6.25 117.965462 Z"/>
    <path id="path1" fill="#ffffff" stroke="none" d="M 912.955688 60.123333 C 918.089233 62.124706 923.567749 63.977039 927.945923 66.054459 C 937.027954 70.36644 945.524048 74.800064 954.290405 79.176941 C 954.606079 79.335098 955.205078 79.467911 955.768188 79.533813 C 955.963501 79.557137 956.533203 79.362473 956.783813 79.23777 C 960.182251 77.555763 963.489624 75.856522 966.946655 74.185669 C 970.784546 72.332321 974.733032 70.501274 978.662109 68.666183 C 981.653687 67.271095 984.352173 67.386673 987.958984 68.623596 C 995.380859 71.169418 1000.455688 74.310371 1008.981079 76.568253 C 1011.790405 77.311417 1014.492188 78.097168 1017.083374 78.91333 C 1018.359375 79.314819 1019.163452 79.857239 1020.367798 80.285095 C 1028.092407 83.030647 1035.37439 85.921173 1043.759766 88.455849 C 1054.05603 91.569427 1061.897827 95.199081 1069.515015 98.915916 C 1070.546875 99.418793 1071.637329 99.9095 1072.698608 100.405281 C 1073.90625 100.000748 1075.257202 99.626633 1076.302124 99.183578 C 1081.126343 97.142662 1086.78064 95.416046 1093.785767 94.070648 C 1097.132202 93.427849 1099.638672 92.373428 1102.679077 91.561325 C 1106.116577 90.644783 1108.229126 90.940834 1111.067749 92.128075 C 1115.712891 94.07267 1116.142578 96.531296 1120.009766 98.574242 C 1123.28772 100.306946 1125.47522 102.235321 1128.330078 104.049118 C 1132.18103 106.499641 1136.376953 108.899467 1140.039063 111.377357 C 1140.901733 111.961342 1140.989624 112.903221 1140.029297 113.434494 C 1139.029907 113.987045 1139.130859 114.364204 1139.638672 114.849846 C 1141.214233 116.356453 1143.597046 116.681908 1148.522095 117.037773 C 1156.702515 117.627846 1165.315796 117.069206 1173.277954 118.117546 C 1178.466797 118.800888 1183.818359 119.362572 1189.121094 119.95974 C 1191.24353 120.200027 1193.427734 120.388603 1195.585938 120.601517 C 1196.214233 120.664383 1196.96936 120.679588 1197.43811 120.802261 C 1198.37561 121.045593 1199.15686 121.34874 1200 121.626534 C 1198.84436 121.66507 1197.675781 121.758339 1196.533203 121.731979 C 1192.122437 121.629578 1187.724609 121.472427 1183.317017 121.366989 C 1179.645142 121.278786 1175.9375 121.112503 1172.294922 121.19767 C 1165.292969 121.361916 1158.333374 121.686356 1151.347656 121.928673 C 1147.252563 122.071625 1143.151001 122.191261 1139.049438 122.310898 C 1130.240845 122.56842 1121.432251 122.830002 1112.620483 123.068253 C 1104.951172 123.2761 1097.272095 123.453529 1089.599609 123.64109 C 1086.839233 123.709023 1084.059204 123.864143 1081.318359 123.814461 C 1072.926392 123.661369 1066.236938 122.517723 1060.901733 120.450455 C 1057.242798 119.032051 1053.997437 117.361198 1047.617188 116.927261 C 1045.058594 116.753891 1042.408813 116.706238 1039.798218 116.612968 C 1036.175171 116.483185 1032.643188 116.356453 1029.423828 115.68528 C 1027.207031 115.222954 1027.613892 114.870132 1029.160156 114.470665 C 1037.158203 112.397308 1045.332031 110.38681 1053.183594 108.261742 C 1056.217407 107.440506 1058.636108 106.391159 1061.201172 105.412773 C 1064.160156 104.28434 1067.03772 103.134613 1069.785156 101.956497 C 1070.296265 101.735481 1070.491577 101.240715 1070.048828 101.037933 C 1065.99939 99.175468 1062.327515 97.190308 1057.454468 95.556969 C 1052.545532 93.912483 1048.662109 92.080421 1044.456421 90.296021 C 1042.34375 89.400772 1039.667969 88.634285 1037.19397 87.824211 C 1028.730469 85.05027 1019.93811 82.366562 1011.855469 79.489212 C 1005.00647 77.048828 999.003906 74.379318 992.558594 71.828423 C 990.299438 70.935211 987.903687 70.072411 985.439453 69.233932 C 983.505859 68.575943 982.151733 68.619537 980.592407 69.362701 C 978.092407 70.555016 975.709595 71.772659 973.245483 72.973083 C 968.515625 75.276588 963.769531 77.578064 959.016968 79.877518 C 957.255859 80.729164 954.798218 81.502747 953.798828 82.43145 C 951.894531 84.192535 951.061157 86.064133 949.31311 87.844482 C 947.861328 89.322708 945.445923 90.709671 943.984375 92.186874 C 942.587891 93.603256 942.063843 95.100731 940.804077 96.532318 C 939.231812 98.315704 937.242798 100.063614 935.572876 101.838898 C 935.263672 102.168404 935.351563 102.582062 935.683594 102.914604 C 937.35022 104.587486 938.808594 106.256317 943.098999 107.578392 C 946.731812 108.697708 947.027954 110.304688 947.604126 111.830551 C 948.089233 113.110054 949.378296 114.370293 949.554077 115.648781 C 949.811157 117.529495 949.703735 119.428474 949.108032 121.299057 C 948.890015 121.974297 946.679688 122.498466 943.902954 122.507591 C 930.06189 122.558281 916.223999 122.676903 902.386108 122.670822 C 895.947266 122.667778 889.365234 122.657639 883.115234 122.253105 C 876.233765 121.808022 869.397827 121.453163 862.444702 121.581924 C 856.956421 121.683319 851.529907 122.075684 846.057983 122.296707 C 841.975952 122.462975 837.877563 122.630264 833.769531 122.675888 C 827.984985 122.739761 822.18103 122.736717 816.396484 122.681969 C 807.109375 122.593765 797.626953 122.76004 788.613281 122.206474 C 781.904297 121.793823 775.849609 122.548141 769.423828 122.343346 C 759.654907 122.032082 749.772095 122.05439 740.026001 121.701569 C 732.942749 121.445053 726.061157 120.672485 718.984375 120.384552 C 711.197876 120.067207 703.763062 119.220627 695.732422 119.220627 C 688.697876 119.220627 681.50061 119.148643 674.713501 118.341606 C 674.003906 118.257454 673.108765 118.321327 672.301392 118.321327 C 664.06897 118.321327 655.830078 118.389259 647.610718 118.290916 C 643.714233 118.245293 639.648438 118.051643 636.038391 117.616692 C 631.25 117.040817 629.781921 115.702515 631.311829 114.169548 C 632.760437 112.718704 635.810547 111.640961 639.436829 110.668663 C 642.770142 109.775444 645.729126 108.746368 649.12439 107.879517 C 655.608765 106.224884 662.33728 104.662514 668.854126 103.019035 C 671.201172 102.427948 673.079468 102.749344 674.466187 103.265404 C 681.829468 106.006905 689.176392 108.754478 696.236938 111.572021 C 700.507813 113.277344 706.227173 113.919121 712.66272 114.350014 C 723.818359 115.097229 734.863281 116.003632 746.009155 116.768089 C 749.710327 117.022568 753.580688 117.033714 757.359985 117.187828 C 759.254517 117.264877 761.109985 117.438248 763.004517 117.51429 C 763.798828 117.545723 764.651733 117.438248 765.47522 117.393639 C 765.224609 117.17363 765.146484 116.908005 764.69397 116.740715 C 761.018921 115.378075 760.104126 113.717361 759.082031 112.041443 C 758.398438 110.917053 757.613892 109.751114 756.002563 108.740288 C 751.516968 105.929848 746.253296 103.25222 742.333984 100.335327 C 740.120483 98.68779 736.380249 97.200455 732.744141 95.786102 C 726.025391 93.171341 718.457031 90.759354 712.067017 88.073624 C 708.385376 86.525452 706.022095 84.628494 706.123047 82.589615 C 706.181641 81.442932 706.751343 80.296249 706.640625 79.152603 C 706.516968 77.84066 705.885376 76.533783 705.498047 75.223877 C 705.432983 75.00386 705.488281 74.780807 705.488281 74.558777 C 705.488281 72.120422 705.341797 69.680038 705.540405 67.243721 C 705.670532 65.646881 706.24353 64.052071 706.71875 62.459282 C 707.542358 59.72184 704.358765 57.264229 701.34436 54.790398 C 699.645142 53.394302 697.926392 51.997185 696.474609 50.575745 C 696.210938 50.318222 696.917358 49.80014 697.675781 49.6511 C 698.414673 49.506111 700.166016 49.548691 700.84314 49.733223 C 708.085938 51.714317 714.182983 53.997543 719.596313 56.492668 C 723.567749 58.322701 728.333374 59.984428 732.727905 61.725246 C 735.859375 62.966221 739.31311 64.14534 741.992188 65.474518 C 746.46814 67.692871 752.008423 69.487411 758.818359 71.058899 C 764.811157 72.442825 770.322266 74.154236 774.814453 76.009613 C 779.505249 77.945091 782.890625 80.198914 786.523438 82.366562 C 788.824829 83.737305 790.192017 85.263184 792.604126 86.610611 C 795.211548 88.066528 798.255249 89.469711 801.640625 90.760361 C 805.934204 92.397766 810.755249 93.902344 815.367798 95.458633 C 821.416016 97.499542 826.08728 99.763504 829.446655 102.384354 C 832.926392 105.098473 837.392578 107.717293 842.272095 110.218506 C 844.785156 111.506119 849.091797 112.461182 852.705078 113.528786 C 853.265015 113.694038 854.453125 113.653488 855.351563 113.708237 C 855.192017 113.45578 855.322266 113.099915 854.830688 112.966087 C 851.402954 112.032318 852.18103 110.681847 851.305298 109.519951 C 849.401001 106.994408 848.440796 104.392822 846.18811 101.902771 C 844.443359 99.974396 841.269531 98.173767 838.841187 96.301155 C 838.102173 95.731354 837.460938 95.124054 837.246094 94.516739 C 836.533203 92.517403 836.663452 90.502846 833.769531 88.59272 C 832.18103 87.544388 832.298218 86.256775 831.025391 85.147598 C 828.209595 82.696075 824.970703 80.292191 821.979126 77.859924 C 821.438843 77.420914 821.435547 76.918037 820.885376 76.480049 C 819.078735 75.035294 817.128906 73.607758 815.244141 72.173141 C 813.004517 70.466812 810.852905 68.749313 808.512329 67.056152 C 806.432251 65.55056 803.971313 64.09465 801.985718 62.577904 C 798.613281 60.0037 795.836548 57.349388 792.128906 54.82486 C 789.342407 52.92791 786.061157 51.044151 781.96936 49.404732 C 776.819702 47.341515 771.03186 45.387787 764.759155 43.653061 C 757.33728 41.599983 752.584595 38.951759 746.614624 36.577286 C 746.070923 36.360313 746.022095 36.024727 745.729126 35.744896 C 744.960938 35.00782 743.932251 34.4076 741.787109 33.863159 C 739.15686 33.197044 737.50647 32.162903 735.358032 31.30619 C 731.090454 29.604912 727.177734 27.791107 722.363281 26.255104 C 717.008423 24.54673 710.543579 23.180046 705.048828 21.508171 C 698.225952 19.434822 691.363892 17.332054 685.524048 14.997124 C 680.175781 12.858879 675.810547 10.454994 671.689453 8.055168 C 668.828125 6.390404 667.373047 4.496498 664.817749 2.771912 C 661.549438 0.564728 655.856079 0.53228 651.168579 2.490059 C 645.052124 5.046013 640.553345 7.886871 636.10675 10.720634 C 633.359375 12.471573 631.923828 14.421242 629.876282 16.279663 C 625.110657 20.603806 619.964172 24.873207 613.339844 28.969223 C 609.710266 31.211899 607.333984 33.657349 603.541687 35.869606 C 598.58075 38.763176 592.95575 41.549286 586.123047 44.079895 C 578.476563 46.911629 571.09375 49.812302 563.430969 52.639984 C 559.309875 54.15976 554.840515 55.589317 550.527344 57.059433 C 550.390625 57.106064 550.23114 57.146614 550.100891 57.195282 C 549.091797 57.570419 547.496765 57.918175 547.275391 58.334869 C 547.115906 58.638023 548.847656 59.019234 549.61261 59.390305 C 554.306641 61.665424 559.091797 63.923302 563.551453 66.24202 C 564.667969 66.823975 564.977234 67.599586 565.195313 68.300171 C 565.992859 70.875397 566.627625 73.465828 569.755859 75.887955 C 571.051453 76.890663 573.154297 77.802139 575.084656 78.7136 C 579.257813 80.682526 583.408203 82.660583 587.858093 84.567665 C 590.804016 85.829926 594.0495 87.040489 597.529297 88.162842 C 603.769531 90.175369 607.480469 92.576202 609.772156 95.237602 C 610.283203 95.831726 610.729187 96.451202 611.634094 96.989563 C 614.055969 98.437363 612.011719 99.769592 610.100891 100.952774 C 606.376953 103.261345 601.523438 105.350929 594.765625 106.946762 C 590.559875 107.940346 586.181641 108.898453 582.490234 110.061356 C 579.14386 111.115776 575.390625 112.134712 574.140625 113.719391 C 573.20636 114.909668 574.557312 116.041145 577.858093 116.629181 C 579.332703 116.891777 581.660156 117.451431 581.455078 117.708954 C 581.009094 118.268608 579.492188 118.918503 577.841797 119.171967 C 575.348328 119.556221 572.399109 119.7519 569.593079 119.818817 C 561.647156 120.009422 553.632813 119.979004 545.729187 120.266937 C 541.243469 120.430176 537.060547 120.129059 532.747375 120.080391 C 526.634094 120.011444 520.478516 120.260857 514.348938 120.41497 C 511.155579 120.495056 507.988281 120.679588 504.798157 120.788071 C 498.857422 120.990837 492.913391 121.304123 486.959656 121.329475 C 478.83136 121.36496 472.900391 119.954674 467.620422 118.138832 C 463.776062 116.818779 463.287781 115.207748 462.125671 113.608871 C 461.025391 112.091118 459.53125 110.593636 457.874329 109.124542 C 456.289063 107.719322 454.430359 106.336403 452.369812 104.99202 C 451.386719 104.351257 449.860046 103.756119 448.222656 103.25222 C 440.898438 100.993332 432.34375 99.205887 424.274109 97.229851 C 419.781921 96.130821 416.761047 94.58873 414.576843 92.896584 C 412.646484 91.400116 409.879578 91.08075 405.247375 92.278122 C 398.489563 94.022995 391.848938 95.811455 385.14325 97.576591 C 384.638672 97.709412 384.023438 97.801674 383.463562 97.91523 C 379.707031 98.680695 379.0625 99.884155 379.990234 101.054161 C 381.458313 102.901428 383.811829 104.678734 385.517578 106.509781 C 386.894531 107.986984 387.613953 109.527046 389.101563 110.992088 C 390.371094 112.241173 392.275391 113.430435 393.994141 114.633896 C 394.641907 115.089127 395.631531 115.497711 396.32489 115.947868 C 397.991516 117.028648 400.377625 117.638992 404.482422 117.809326 C 407.005188 117.914772 409.547546 118.49572 411.598328 119.040161 C 413.727234 119.603867 413.193359 120.48391 410.680359 120.759682 C 407.115906 121.149002 403.499329 121.345695 399.560547 121.011124 C 394.394531 120.573128 389.042969 120.353119 383.776062 120.029694 C 380.211609 119.810699 376.686218 119.441658 373.095703 119.373726 C 366.510437 119.249016 359.866516 119.187172 353.284485 119.301743 C 346.383484 119.421371 339.541016 119.871529 332.639954 120.006378 C 325.367859 120.147308 319.895844 118.992508 315.875641 117.183769 C 309.570313 114.345955 303.216156 111.528419 295.869141 108.930893 C 290.045563 106.871727 282.5 105.608452 274.619141 104.720306 C 268.346344 104.013641 264.794922 102.593208 261.054688 101.172783 C 255.904938 99.217033 251.416016 97.093994 246.435547 95.092621 C 243.235687 93.808052 232.669281 93.148026 226.803375 93.712753 C 218.570953 94.504578 211.803375 96.108521 204.791656 97.560379 C 196.070953 99.365051 187.356781 101.183929 179.007172 103.146782 C 173.844391 104.360382 169.339203 105.847725 164.628906 107.240776 C 164.348969 107.323914 164.599609 107.748726 165.026031 107.868362 C 167.281891 108.504059 169.863281 109.035324 171.979156 109.710556 C 175.094391 110.703133 177.952484 111.776817 180.852875 112.834282 C 183.984375 113.975899 187.083344 115.127647 190.117188 116.294609 C 192.259125 117.117874 194.375 117.951271 196.302094 118.823196 C 197.460938 119.346352 196.656891 119.74176 194.723297 119.829964 C 193.427734 119.889778 191.979156 119.94352 190.78125 119.824898 C 183.505859 119.10302 176.057953 119.594742 168.707672 119.470039 C 162.496735 119.364601 156.276047 119.341286 150.058594 119.269295 C 145.670578 119.21759 141.259766 119.214546 136.904297 119.062462 C 131.927078 118.889091 126.979172 118.609268 122.070313 118.295982 C 120.908203 118.22197 119.954422 117.829605 118.903 117.583237 C 119.736328 117.285156 120.426437 116.925232 121.425781 116.697113 C 127.740891 115.258438 135.283203 114.864044 142.65625 114.326691 C 147.929688 113.943451 153.180344 113.530807 158.4375 113.125259 C 162.213531 112.834282 165.996094 112.549385 169.736328 112.21582 C 170.055328 112.187439 170.432953 111.720039 170.159515 111.61866 C 166.360687 110.198227 162.454437 108.805176 158.574219 107.406036 C 155.986328 106.473282 153.639328 105.459412 150.751953 104.628044 C 147.194016 103.602005 143.235672 102.706764 139.355469 101.794281 C 135.478516 100.882813 132.151688 101.493164 129.189453 102.30426 C 124.235031 103.660812 119.296875 105.027512 114.612625 106.472267 C 107.867844 108.553734 101.549484 110.772079 94.694016 112.816032 C 86.930344 115.129677 78.069664 116.936386 67.418617 117.733284 C 66.943359 117.768776 66.419273 117.745453 65.917969 117.751534 C 60.716148 117.8144 55.517578 117.887398 50.315758 117.939102 C 43.08268 118.011086 35.849609 118.072937 28.616535 118.129707 C 20.029297 118.198654 11.442057 118.271652 2.851563 118.302063 C 1.904297 118.305107 0.950521 118.042519 0 117.902603 C 0.947266 117.725174 1.861979 117.418991 2.851563 117.393639 C 7.223308 117.278061 11.617838 117.214188 16.009115 117.193909 C 18.154297 117.183769 20.319012 117.381477 22.460938 117.358162 C 31.442059 117.261841 40.416664 117.121925 49.394531 116.989105 C 52.76693 116.938416 56.149086 116.77417 59.505211 116.818779 C 68.186852 116.934357 75.940758 116.177002 82.643234 114.490936 C 87.714844 113.2155 92.682297 111.884285 97.356766 110.46994 C 103.554688 108.593277 109.358719 106.589874 115.458984 104.680763 C 119.847 103.305962 124.449875 101.99604 128.932297 100.649628 C 129.332687 100.529991 129.456375 100.293762 129.899094 100.216705 C 130.996094 100.024071 132.519531 99.665161 133.310547 99.772629 C 141.930344 100.947708 149.716797 102.492836 155.527344 104.880493 C 157.044266 105.504021 158.984375 106.032242 160.846344 106.5625 C 161.139313 106.645638 162.347015 106.582779 162.659515 106.465164 C 166.106781 105.176544 169.192719 103.7845 172.919922 102.583069 C 175.875641 101.63105 179.576813 100.902084 182.955719 100.078819 C 186.10025 99.31234 189.163422 98.508339 192.428375 97.796608 C 199.342438 96.288986 206.210938 94.751961 213.411469 93.387299 C 216.953125 92.715103 220.859375 92.106781 225.452484 92.266975 C 228.36264 92.36937 231.344391 92.313614 234.287109 92.279144 C 237.281891 92.242645 240.078125 92.309555 242.613922 92.911789 C 244.934906 93.462326 246.542969 93.234207 248.561188 92.520447 C 251.608063 91.440674 255.452484 90.577866 258.971344 89.627884 C 259.554047 89.470726 260.250641 89.352104 260.826813 89.192932 C 264.622406 88.144592 268.440765 87.104362 272.161469 86.029663 C 273.453766 85.656555 274.397797 85.167877 275.654297 84.779572 C 277.128906 84.324341 278.844391 83.945152 280.325531 83.491959 C 284.879547 82.096878 289.407562 80.69368 293.870453 79.271225 C 297.724609 78.042419 301.419281 76.763931 305.289703 75.541214 C 308.36264 74.571945 311.962891 74.482727 315.016266 75.431709 C 319.156891 76.71933 322.929688 78.123528 326.822937 79.48819 C 329.254578 80.340851 331.608093 81.213791 334.007141 82.075584 C 339.20575 83.942108 345.608704 85.313873 352.161438 86.690704 C 356.917297 87.689362 360.891907 89.129059 364.537781 90.541367 C 368.789063 92.190933 372.363281 94.012856 376.10675 95.785095 C 377.180969 96.294052 377.73114 96.90744 378.717468 97.437698 C 378.98114 97.578629 380.3255 97.710426 380.579407 97.639458 C 384.082031 96.662086 387.382813 95.614761 390.930969 94.654633 C 395.449219 93.430893 400.045593 92.229462 404.801453 91.09697 C 409.391296 90.004028 413.922546 90.459244 416.461609 92.006409 C 417.744141 92.788101 418.854187 93.599197 420.15625 94.377846 C 420.520813 94.595825 420.745422 95.140274 422.109375 94.456924 C 428.203125 91.401138 434.6745 88.418335 440.745422 85.358482 C 444.322937 83.556839 447.395813 81.65889 450.716125 79.807556 C 457.1745 76.207321 463.483093 72.57869 470.162781 69.017982 C 476.445313 65.668167 482.796204 62.3214 489.752625 59.10643 C 494.335938 56.988449 499.807922 55.037773 505.361328 53.147934 C 507.815735 52.313507 511.39325 51.786301 514.593079 51.18914 C 515.498047 51.020828 517.102844 50.950874 517.998047 51.086731 C 524.485657 52.069168 530.719421 53.195572 535.963562 54.76606 C 538.264954 55.454475 540.23114 56.250366 542.477234 56.957024 C 544.0625 57.454842 545.475281 57.628212 547.141907 56.832321 C 548.811829 56.035423 551.263 55.399727 553.29425 54.67379 C 559.92511 52.302368 566.721985 49.971474 573.082703 47.53009 C 580 44.873756 586.777344 42.171799 593.105469 39.378601 C 599.215515 36.680702 603.802063 33.714119 607.412109 30.588371 C 609.313171 28.942871 612.434875 27.438286 614.583313 25.815079 C 618.623047 22.75827 622.819031 19.707542 626.103516 16.568611 C 630.319031 12.539513 635.032532 8.592522 641.731812 4.903061 C 644.570313 3.338669 648.020874 1.917221 652.825562 0.827316 C 658.977905 -0.567772 664.53772 0.029404 667.265625 1.9963 C 669.355469 3.49987 671.181641 5.037903 673.177124 6.554649 C 675.99939 8.697968 679.195923 10.767265 684.0625 12.565865 C 687.558594 13.858543 690.400391 15.323586 693.96814 16.592941 C 697.786499 17.952538 701.796875 19.294907 706.285767 20.428406 C 716.796875 23.083725 727.099609 25.745125 734.925171 29.276421 C 740.152954 31.635696 746.660156 33.717163 752.454468 35.957809 C 757.832031 38.038269 763.004517 40.169418 768.297485 42.271164 C 771.979126 43.731133 775.765015 45.165749 779.407593 46.634842 C 783.082642 48.117119 786.634155 49.627777 790.247437 51.125267 C 791.035156 51.450714 791.734985 51.754875 793.024048 51.237808 C 800.68689 48.162743 808.229126 45.057274 817.552124 42.424255 C 821.376953 41.344482 824.859985 40.149139 828.548218 39.021713 C 830.862671 38.314041 832.838501 38.421509 834.78186 39.210289 C 838.522095 40.727043 842.288452 42.24176 846.276001 43.695641 C 853.359375 46.277962 860.543579 48.835953 867.851563 51.357437 C 869.804688 52.031662 872.174438 52.637955 874.703735 53.075943 C 875.996094 53.301018 878.216187 53.215858 879.772095 53.047554 C 888.069702 52.153328 892.467407 52.545692 897.799438 54.7985 C 900.498047 55.939102 903.769531 56.949928 906.803345 58.012459 C 908.782593 58.705948 910.804077 59.388275 912.955688 60.123333 M 581.70575 106.824081 C 583.863953 106.025154 586.188171 105.264755 588.141296 104.420197 C 592.01825 102.742249 590.722656 100.922356 585.979797 99.696594 C 582.874329 98.895638 579.703796 98.11496 576.735046 97.26635 C 575.488281 96.90947 574.947937 96.294052 573.632813 95.979752 C 568.587219 94.771225 563.616516 93.498825 558.134766 92.5103 C 550.553406 91.141586 544.303406 89.351089 539.082031 87.22197 C 536.077454 85.996208 533.307312 84.657898 534.111328 82.928238 C 535.084656 80.825485 535.638 78.702454 536.669922 76.602722 C 537.288391 75.346542 538.522156 74.120781 539.397766 72.87677 C 540.341797 71.53846 541.982422 70.188995 541.891296 68.853737 C 541.748047 66.674942 540.638 64.49411 539.560547 62.332546 C 538.951843 61.114895 538.033875 59.87291 536.461609 58.749535 C 533.489563 56.627525 529.244812 54.75795 523.691406 53.167191 C 521.17511 52.446327 516.370422 52.158386 513.209656 52.681541 C 509.635437 53.272636 506.611328 53.996536 504.134094 54.980995 C 499.736328 56.727898 494.83075 58.369339 490.957031 60.221672 C 484.485657 63.314983 478.492859 66.510696 472.604187 69.718575 C 465.852844 73.396881 459.505188 77.146164 452.841797 80.840698 C 449.121094 82.899857 445.221375 84.930634 441.207703 86.936066 C 435.859375 89.608612 430.263672 92.233521 424.947937 94.91114 C 424.423828 95.175758 424.645203 95.785095 425.302734 96.0345 C 426.796875 96.601257 428.610046 97.125427 430.592468 97.520836 C 437.958984 98.989929 445.263672 100.503632 452.945984 101.79834 C 458.60675 102.753403 464.111328 103.730774 468.505859 105.198845 C 473.4375 106.846382 478.401672 108.496956 482.861328 110.266151 C 487.366516 112.051575 491.370422 113.962715 495.380859 115.862701 C 497.001953 116.630203 497.763672 117.291245 501.881531 117.060081 C 507.838562 116.726517 514.069031 116.874542 520.179016 116.796471 C 523.248718 116.75795 526.305359 116.650475 529.375 116.618034 C 532.353516 116.586601 535.338562 116.630203 538.313782 116.602829 C 539.866516 116.588631 541.455078 116.547058 542.945984 116.422356 C 549.335938 115.88501 554.375 114.715004 559.23175 113.318909 C 566.63739 111.190804 574.778625 109.313126 581.70575 106.824081 M 255.488281 97.132523 C 256.852203 97.621208 258.248688 98.102791 259.580078 98.601616 C 261.33139 99.257591 262.685547 100.07679 264.824219 100.564461 C 271.627594 102.116699 278.658844 103.574631 285.709625 105.019394 C 293.229156 106.559456 300.266937 108.319527 306.2565 110.370583 C 314.462891 113.180008 323.883484 114.721092 336.123047 114.123917 C 347.639954 113.561226 356.298828 111.575058 362.26239 108.487831 C 364.586609 107.285385 366.565735 106.00589 368.287781 104.708138 C 370.126953 103.324211 372.958984 102.03862 372.630188 100.412384 C 372.451172 99.527275 373.053406 98.630005 373.138 97.736786 C 373.183594 97.238976 373.248718 96.694534 372.685547 96.246407 C 369.365234 93.604263 362.763672 91.678925 357.252625 89.515343 C 356.087219 89.057068 355.029297 88.534927 353.557922 88.197311 C 348.29425 86.990814 342.773438 85.890762 337.548828 84.668037 C 334.778625 84.020172 332.180969 83.264847 329.92511 82.445648 C 324.501953 80.473671 319.391266 78.418564 314.013672 76.434425 C 311.985687 75.68721 309.521484 75.712547 307.382813 76.406036 C 305.380859 77.054909 303.58725 77.768677 301.533203 78.400314 C 291.953125 81.346611 282.317719 84.273651 272.701813 87.207779 C 272.408844 87.295982 272.138672 87.391289 271.835938 87.475433 C 264.270844 89.581238 256.71875 91.691101 249.117828 93.785751 C 248.001312 94.093964 248.167328 94.261246 249.101563 94.597855 C 251.2565 95.376511 253.170563 96.220039 255.488281 97.132523 M 859.755859 50.003922 C 856.88147 49.043785 854.010376 48.083664 851.129517 47.126572 C 848.932251 46.395576 846.608032 45.698029 844.534546 44.933578 C 840.553345 43.464485 836.702515 41.9599 832.815796 40.464455 C 831.253296 39.863228 829.873047 39.891609 828.154297 40.4533 C 821.464844 42.639198 814.544312 44.760201 807.965454 46.977531 C 803.424438 48.508469 799.296875 50.158035 794.996704 51.757919 C 794.765625 51.8451 794.671265 51.967789 794.511719 52.074242 C 794.957642 52.111755 795.452515 52.211121 795.836548 52.17968 C 799.589844 51.873497 803.330078 51.555138 807.057251 51.221573 C 819.21228 50.135727 824.296875 51.229691 832.298218 53.876892 C 833.769531 54.362541 834.947876 54.932327 836.357422 55.438255 C 840.784546 57.023941 845.367798 58.568062 849.68103 60.184166 C 853.841187 61.742474 858.821655 62.747223 865.377563 63.037186 C 871.455078 63.306877 877.473999 63.707348 883.512329 64.060173 C 888.710938 64.364334 892.913452 65.297096 897.102905 66.214645 C 900.429688 66.943611 903.75647 67.683746 906.848999 68.503952 C 910.335327 69.428604 913.489624 70.472893 916.923828 71.416794 C 920.384155 72.36882 924.121094 73.223511 927.535767 74.189728 C 930.654297 75.069763 933.854126 75.816986 938.050171 76.166763 C 939.980469 76.327972 941.884766 76.760895 943.297485 77.221191 C 945.361328 77.892365 946.875 78.724747 948.831421 79.433441 C 949.570313 79.700089 950.891968 79.8106 951.949829 79.992088 C 951.627563 79.663589 951.50061 79.299614 950.947266 79.014717 C 949.951172 78.501701 948.60022 78.055595 947.581421 77.546638 C 944.361938 75.938644 941.360718 74.287064 938.027344 72.7034 C 933.395142 70.504318 928.798828 68.292068 923.717407 66.195374 C 917.174438 63.496468 910.182251 60.904015 903.34314 58.275047 C 902.122437 57.805634 900.869141 57.322014 899.358765 56.952972 C 896.253296 56.193581 892.952515 55.511253 889.752563 54.789375 C 887.24939 54.224655 884.804688 53.374016 881.425781 53.926582 C 876.25 54.773155 872.441406 54.055336 868.938843 53.029305 C 865.800781 52.110741 863.007813 51.079643 859.755859 50.003922 M 1128.658813 106.634483 C 1128.453735 106.565544 1128.183594 106.506737 1128.059937 106.426643 C 1122.965454 103.095078 1117.994751 99.745255 1112.744141 96.438026 C 1110.9375 95.300468 1108.492798 94.259224 1106.233765 93.194664 C 1104.921875 92.576202 1103.447266 92.460617 1101.770874 93.141937 C 1100.729126 93.56472 1099.407593 93.925659 1098.13147 94.28862 C 1091.507202 96.174416 1084.78186 98.027771 1078.268188 99.951073 C 1076.809937 100.381966 1075.117188 101.065308 1075.214844 101.603676 C 1075.37439 102.508041 1076.62439 103.426605 1077.877563 104.2742 C 1079.886108 105.631767 1082.897095 106.875786 1084.306641 108.282021 C 1085.511108 109.483452 1087.604126 109.542252 1090.813843 109.605118 C 1098.28772 109.751114 1105.78772 109.206665 1113.28125 110.099884 C 1120.055298 110.906921 1127.347046 111.293205 1134.417358 111.852859 C 1135.013062 111.900513 1135.690063 111.85083 1136.324829 111.845764 C 1136.210938 111.629807 1136.259766 111.387497 1135.957031 111.200943 C 1133.561157 109.735909 1131.10022 108.282021 1128.658813 106.634483 Z"/>
</svg>
